G04 Layer_Physical_Order=1*
G04 Layer_Color=3162822*
%FSLAX44Y44*%
%MOMM*%
G71*
G01*
G75*
%ADD10R,1.3500X0.4000*%
%ADD11R,1.1000X1.7000*%
%ADD12R,2.6000X1.2000*%
%ADD13R,0.9000X0.8000*%
%ADD14O,1.5500X0.2500*%
%ADD15O,0.2500X1.5500*%
%ADD16R,1.7000X1.1000*%
%ADD17R,0.8000X0.9000*%
%ADD18R,1.0000X2.4500*%
%ADD19R,2.4500X1.0000*%
%ADD20R,1.0000X1.3000*%
%ADD21R,1.8000X2.2500*%
%ADD22R,0.6500X0.9000*%
%ADD23R,0.6500X1.1000*%
%ADD24R,2.4000X3.3000*%
%ADD25R,2.4000X1.0000*%
%ADD26R,1.9000X1.5000*%
%ADD27C,0.4000*%
%ADD28C,0.5080*%
%ADD29C,0.2000*%
%ADD30C,0.5000*%
%ADD31C,0.7500*%
%ADD32C,1.7500*%
%ADD33C,1.5000*%
%ADD34R,1.5000X1.5000*%
%ADD35C,2.0000*%
%ADD36R,1.5000X1.5000*%
%ADD37C,3.5000*%
%ADD38C,0.6000*%
G36*
X253887Y419804D02*
X252750Y418322D01*
X251636Y415634D01*
X251256Y412749D01*
X251636Y409864D01*
X252750Y407176D01*
X254521Y404868D01*
X256829Y403097D01*
X259517Y401983D01*
X262402Y401604D01*
X265286Y401983D01*
X267974Y403097D01*
X270283Y404868D01*
X271362Y406274D01*
X280567D01*
X280671Y406171D01*
X282771Y404767D01*
X285249Y404274D01*
X292259D01*
X292571Y403868D01*
X293977Y402789D01*
Y398885D01*
X290500D01*
X289013Y398589D01*
X287753Y397747D01*
X287500Y397368D01*
X286348Y396839D01*
X285916Y397109D01*
X285491Y397393D01*
X284500Y397590D01*
X282040D01*
Y388500D01*
Y379410D01*
X284500D01*
X285491Y379607D01*
X285916Y379891D01*
X286348Y380161D01*
X287500Y379632D01*
X287753Y379253D01*
X289013Y378411D01*
X290500Y378115D01*
X292389D01*
X293068Y376845D01*
X292661Y376236D01*
X292365Y374750D01*
Y352250D01*
X292344Y352224D01*
X275361D01*
X275340Y352250D01*
Y360960D01*
X263750D01*
X252160D01*
Y352250D01*
X252357Y351259D01*
X252919Y350419D01*
X253759Y349857D01*
X254750Y349660D01*
X258845D01*
X259331Y348487D01*
X257422Y346578D01*
X256018Y344478D01*
X255965Y344207D01*
X254844Y343608D01*
X254776Y343636D01*
X252998Y343870D01*
X251221Y343636D01*
X249564Y342950D01*
X248141Y341858D01*
X247050Y340436D01*
X246364Y338779D01*
X246140Y337080D01*
X245998Y336868D01*
X244846Y336339D01*
X244414Y336609D01*
X243989Y336893D01*
X242998Y337090D01*
X241538D01*
Y330000D01*
X236458D01*
Y337090D01*
X235904D01*
Y383000D01*
X235531Y384877D01*
X234468Y386468D01*
X230494Y390442D01*
X230980Y391615D01*
X237000D01*
X238486Y391911D01*
X239747Y392753D01*
X240589Y394013D01*
X240885Y395500D01*
Y396951D01*
X241272Y397028D01*
X243193Y398312D01*
X246189Y401308D01*
X247473Y403229D01*
X247924Y405496D01*
Y418544D01*
X250454Y421074D01*
X253261D01*
X253887Y419804D01*
D02*
G37*
G36*
X216096Y375969D02*
Y357776D01*
X214826Y357524D01*
X214449Y358434D01*
X213357Y359857D01*
X211934Y360949D01*
X210278Y361635D01*
X208500Y361869D01*
X206722Y361635D01*
X205066Y360949D01*
X203705Y359904D01*
X179550D01*
X179471Y360000D01*
X179188Y361424D01*
X178469Y362500D01*
X179188Y363576D01*
X179634Y363815D01*
X180719Y363365D01*
X182497Y363131D01*
X184275Y363365D01*
X184662Y363526D01*
X189498D01*
X189950Y363615D01*
X193498D01*
X194985Y363911D01*
X196245Y364753D01*
X196498Y365132D01*
X197651Y365661D01*
X198083Y365391D01*
X198507Y365107D01*
X199498Y364910D01*
X200958D01*
Y372000D01*
X203498D01*
Y374540D01*
X210088D01*
Y376096D01*
X215969D01*
X216096Y375969D01*
D02*
G37*
G36*
X219413Y538513D02*
X219552Y538306D01*
X220252Y537247D01*
X219409Y535987D01*
X219319Y535530D01*
X218219Y535385D01*
X216563Y534699D01*
X215140Y533607D01*
X214048Y532184D01*
X213362Y530528D01*
X213128Y528750D01*
X213362Y526972D01*
X214048Y525316D01*
X215140Y523893D01*
X216563Y522802D01*
X218219Y522115D01*
X219997Y521881D01*
X220008Y521883D01*
X220744Y520699D01*
X220606Y520491D01*
X220409Y519500D01*
Y517540D01*
X226998D01*
Y512460D01*
X220409D01*
Y510500D01*
X220606Y509509D01*
X221167Y508669D01*
X222007Y508107D01*
X222719Y507966D01*
X223300Y507288D01*
X223582Y506709D01*
X222853Y506334D01*
X222271Y506205D01*
X221991Y506393D01*
X221000Y506590D01*
X218540D01*
Y497500D01*
X216000D01*
Y494960D01*
X208410D01*
Y491000D01*
X208607Y490009D01*
X208633Y489970D01*
X208324Y488974D01*
X208046Y488563D01*
X206562Y487948D01*
X205140Y486857D01*
X204048Y485434D01*
X203362Y483778D01*
X203128Y482000D01*
X203362Y480222D01*
X204048Y478566D01*
X205140Y477143D01*
X206562Y476051D01*
X208219Y475365D01*
X209552Y475190D01*
X209743Y475063D01*
X210523Y474057D01*
X210412Y473500D01*
Y471540D01*
X217001D01*
Y466460D01*
X210412D01*
Y464500D01*
X210609Y463509D01*
X210891Y463087D01*
X210465Y461994D01*
X209209Y461773D01*
X199899Y471083D01*
X198907Y471746D01*
X197736Y471979D01*
X197736Y471979D01*
X179629D01*
X179244Y473249D01*
X179246Y473251D01*
X179499Y473630D01*
X180652Y474159D01*
X181084Y473889D01*
X181509Y473605D01*
X182500Y473408D01*
X183960D01*
Y480498D01*
X186500D01*
Y483038D01*
X193089D01*
Y484998D01*
X192892Y485989D01*
X192558Y486489D01*
X192886Y487588D01*
X193068Y487838D01*
X193278Y487865D01*
X194934Y488551D01*
X196357Y489643D01*
X197449Y491066D01*
X198135Y492722D01*
X198369Y494500D01*
X198135Y496278D01*
X197449Y497934D01*
X196357Y499357D01*
X194934Y500448D01*
X193278Y501135D01*
X191500Y501369D01*
X189722Y501135D01*
X189331Y500973D01*
X166730D01*
X166195Y501595D01*
X166737Y502865D01*
X172501D01*
X173987Y503161D01*
X175248Y504003D01*
X175492Y504369D01*
X175509Y504357D01*
X176500Y504160D01*
X178960D01*
Y519000D01*
X181500D01*
Y521540D01*
X189090D01*
Y531250D01*
X188893Y532241D01*
X188332Y533081D01*
X187491Y533643D01*
X186500Y533840D01*
X182919D01*
X182488Y535110D01*
X182857Y535393D01*
X183427Y536136D01*
X183764Y535911D01*
X185251Y535615D01*
X209751D01*
X211237Y535911D01*
X212497Y536753D01*
X213340Y538013D01*
X213451Y538576D01*
X219400D01*
X219413Y538513D01*
D02*
G37*
G36*
X42209Y473279D02*
X42763Y472909D01*
X44250Y472613D01*
X53250D01*
X54736Y472909D01*
X54763Y472926D01*
X55678Y472011D01*
X55661Y471985D01*
X55365Y470498D01*
Y462498D01*
X55661Y461011D01*
X56503Y459751D01*
X57763Y458909D01*
X59250Y458613D01*
X68250D01*
X69252Y458813D01*
X72096Y455969D01*
Y410396D01*
X70976Y409798D01*
X70627Y410031D01*
X68750Y410404D01*
X68056D01*
X67840Y411487D01*
X67663Y411753D01*
X67837Y412013D01*
X68133Y413500D01*
Y422500D01*
X67837Y423987D01*
X66995Y425247D01*
X65735Y426089D01*
X65153Y426205D01*
Y432202D01*
X64811Y433921D01*
X65487Y435186D01*
X66351Y438036D01*
X66643Y441000D01*
X66351Y443964D01*
X65487Y446814D01*
X64083Y449441D01*
X62193Y451743D01*
X59891Y453633D01*
X57264Y455037D01*
X54414Y455901D01*
X51450Y456193D01*
X48486Y455901D01*
X45636Y455037D01*
X43009Y453633D01*
X40707Y451743D01*
X38817Y449441D01*
X37413Y446814D01*
X37410Y446802D01*
X36140Y446991D01*
Y448500D01*
X35943Y449491D01*
X35381Y450331D01*
X34541Y450893D01*
X33550Y451090D01*
X28590D01*
Y441000D01*
Y430910D01*
X33550D01*
X34541Y431107D01*
X35381Y431669D01*
X35943Y432509D01*
X36140Y433500D01*
Y435009D01*
X37410Y435198D01*
X37413Y435186D01*
X38817Y432559D01*
X40707Y430257D01*
X43009Y428367D01*
X44342Y427655D01*
X44024Y426385D01*
X42248D01*
X40762Y426089D01*
X39501Y425247D01*
X39249Y424869D01*
X39247Y424869D01*
X37469Y424635D01*
X35812Y423949D01*
X34390Y422857D01*
X33298Y421434D01*
X32612Y419778D01*
X32378Y418000D01*
X32612Y416222D01*
X33298Y414566D01*
X34390Y413143D01*
X35812Y412051D01*
X37469Y411365D01*
X38780Y411193D01*
X39654Y410047D01*
X39665Y410017D01*
X39662Y410000D01*
Y408040D01*
X46251D01*
Y402960D01*
X39662D01*
Y401000D01*
X39859Y400009D01*
X40366Y399250D01*
X39859Y398491D01*
X39662Y397500D01*
Y395540D01*
X46252D01*
Y390460D01*
X39662D01*
Y388500D01*
X39859Y387509D01*
X40366Y386750D01*
X39859Y385991D01*
X39662Y385000D01*
Y383040D01*
X46252D01*
Y377960D01*
X39662D01*
Y376404D01*
X16904D01*
Y430134D01*
X18174Y430985D01*
X18550Y430910D01*
X23510D01*
Y441000D01*
Y451090D01*
X18550D01*
X18174Y451015D01*
X16904Y451866D01*
Y458613D01*
X23250D01*
X24736Y458908D01*
X25996Y459750D01*
X26839Y461011D01*
X27134Y462497D01*
Y470497D01*
X26839Y471984D01*
X26820Y472011D01*
X27736Y472927D01*
X27763Y472909D01*
X29250Y472613D01*
X38250D01*
X39736Y472909D01*
X40291Y473279D01*
X41249Y473652D01*
X42209Y473279D01*
D02*
G37*
G36*
X133014Y503161D02*
X134501Y502865D01*
X137077D01*
Y501461D01*
X136753Y501245D01*
X135911Y499985D01*
X135615Y498498D01*
Y490498D01*
X135911Y489011D01*
X136753Y487751D01*
Y487245D01*
X135911Y485985D01*
X135615Y484498D01*
Y476498D01*
X135911Y475011D01*
X136753Y473751D01*
X138013Y472909D01*
X139500Y472613D01*
X139605D01*
X139990Y471343D01*
X139601Y471083D01*
X131087Y462570D01*
X130424Y461577D01*
X130191Y460407D01*
X130191Y460407D01*
Y441289D01*
X130180Y441278D01*
X116719D01*
X115549Y441045D01*
X114556Y440382D01*
X114556Y440382D01*
X109969Y435795D01*
X108983Y436604D01*
X109589Y437512D01*
X109885Y438998D01*
Y446998D01*
X109589Y448485D01*
X108747Y449745D01*
X108368Y449998D01*
X107839Y451151D01*
X108109Y451583D01*
X108393Y452007D01*
X108590Y452998D01*
Y454458D01*
X94410D01*
Y452998D01*
X94607Y452007D01*
X94891Y451583D01*
X95161Y451151D01*
X94632Y449998D01*
X94253Y449745D01*
X93411Y448485D01*
X93115Y446998D01*
Y438998D01*
X93411Y437512D01*
X94253Y436251D01*
X94902Y435818D01*
X94881Y435659D01*
X95115Y433882D01*
X95801Y432225D01*
X96596Y431190D01*
Y422750D01*
X96969Y420873D01*
X97779Y419662D01*
Y416250D01*
X98062Y414826D01*
X98869Y413619D01*
X100076Y412812D01*
X101500Y412528D01*
X102924Y412812D01*
X103874Y413447D01*
X103960Y413389D01*
Y413503D01*
X104132Y413618D01*
X104939Y414826D01*
X105222Y416250D01*
Y419662D01*
X106031Y420873D01*
X106405Y422750D01*
X107778D01*
Y416250D01*
X108061Y414826D01*
X108868Y413618D01*
X109040Y413503D01*
Y413389D01*
X109126Y413447D01*
X110076Y412812D01*
X111500Y412528D01*
X112924Y412812D01*
X114000Y413531D01*
X115076Y412812D01*
X116500Y412528D01*
X117924Y412812D01*
X119000Y413531D01*
X120076Y412812D01*
X121500Y412528D01*
X122924Y412812D01*
X124000Y413531D01*
X125076Y412812D01*
X126500Y412528D01*
X127924Y412812D01*
X129000Y413531D01*
X130076Y412812D01*
X131500Y412528D01*
X132924Y412812D01*
X134000Y413531D01*
X135076Y412812D01*
X136500Y412528D01*
X137924Y412812D01*
X139000Y413531D01*
X140076Y412812D01*
X141500Y412528D01*
X142924Y412812D01*
X144000Y413531D01*
X145076Y412812D01*
X146500Y412528D01*
X147924Y412812D01*
X149000Y413531D01*
X150076Y412812D01*
X151500Y412528D01*
X152924Y412812D01*
X154000Y413531D01*
X155076Y412812D01*
X156500Y412528D01*
X157924Y412812D01*
X159131Y413619D01*
X159938Y414826D01*
X160221Y416250D01*
Y419662D01*
X161031Y420873D01*
X161404Y422750D01*
Y428969D01*
X161577Y429141D01*
X163278Y429365D01*
X164934Y430051D01*
X166261Y431070D01*
X166465Y431119D01*
X167729Y430845D01*
X168051Y430066D01*
X169143Y428644D01*
X170566Y427552D01*
X172222Y426866D01*
X174000Y426632D01*
X175778Y426866D01*
X177434Y427552D01*
X178857Y428644D01*
X179345Y429280D01*
X180615Y428849D01*
Y421502D01*
X180911Y420015D01*
X181753Y418755D01*
Y418248D01*
X180911Y416988D01*
X180615Y415502D01*
Y414904D01*
X169250D01*
X167373Y414531D01*
X166162Y413722D01*
X162750D01*
X161326Y413438D01*
X160118Y412631D01*
X159312Y411424D01*
X159028Y410000D01*
X159312Y408576D01*
X160031Y407500D01*
X159312Y406424D01*
X159028Y405000D01*
X159312Y403576D01*
X160031Y402500D01*
X159312Y401424D01*
X159028Y400000D01*
X159312Y398576D01*
X160031Y397500D01*
X159312Y396424D01*
X159028Y395000D01*
X159312Y393576D01*
X160031Y392500D01*
X159312Y391424D01*
X159028Y390000D01*
X159312Y388576D01*
X160031Y387500D01*
X159312Y386424D01*
X159028Y385000D01*
X159312Y383576D01*
X159946Y382626D01*
X159889Y382540D01*
X160003D01*
X160118Y382368D01*
X161326Y381561D01*
X162750Y381278D01*
X166162D01*
X167373Y380469D01*
X169250Y380095D01*
Y379905D01*
X167373Y379531D01*
X166162Y378722D01*
X162750D01*
X161326Y378439D01*
X160118Y377632D01*
X160003Y377460D01*
X159889D01*
X159946Y377374D01*
X159312Y376424D01*
X159028Y375000D01*
X159164Y374318D01*
X157994Y373692D01*
X155718Y375968D01*
X154127Y377031D01*
X152250Y377404D01*
X147045D01*
X145684Y378448D01*
X144028Y379135D01*
X142250Y379369D01*
X140472Y379135D01*
X138816Y378448D01*
X137393Y377357D01*
X136302Y375934D01*
X135615Y374278D01*
X135381Y372500D01*
X135615Y370722D01*
X136302Y369066D01*
X137393Y367643D01*
X138816Y366552D01*
X140257Y365955D01*
X140131Y365000D01*
X140365Y363222D01*
X141052Y361566D01*
X142143Y360143D01*
X143566Y359052D01*
X145037Y358442D01*
X144865Y358028D01*
X144631Y356250D01*
X144865Y354472D01*
X145260Y353520D01*
X145099Y352358D01*
X144650Y351904D01*
X144000Y351469D01*
X142924Y352188D01*
X141500Y352472D01*
X140076Y352188D01*
X139000Y351469D01*
X137924Y352188D01*
X136500Y352472D01*
X135076Y352188D01*
X134000Y351469D01*
X132924Y352188D01*
X131500Y352472D01*
X130076Y352188D01*
X129000Y351469D01*
X127924Y352188D01*
X126500Y352472D01*
X125076Y352188D01*
X124126Y351554D01*
X124040Y351611D01*
Y351497D01*
X123868Y351382D01*
X123061Y350175D01*
X122778Y348750D01*
Y345339D01*
X121968Y344127D01*
X121595Y342250D01*
X121405D01*
X121031Y344127D01*
X120222Y345339D01*
Y348750D01*
X119939Y350175D01*
X119132Y351382D01*
X118960Y351497D01*
Y351611D01*
X118874Y351554D01*
X117924Y352188D01*
X116500Y352472D01*
X115076Y352188D01*
X114000Y351469D01*
X112924Y352188D01*
X111500Y352472D01*
X110076Y352188D01*
X109000Y351469D01*
X107924Y352188D01*
X106500Y352472D01*
X105076Y352188D01*
X104000Y351469D01*
X102924Y352188D01*
X101500Y352472D01*
X100076Y352188D01*
X98869Y351381D01*
X98230Y350426D01*
X97031Y350466D01*
X96850Y351020D01*
X96840Y351673D01*
X97881Y352369D01*
X98688Y353576D01*
X98971Y355000D01*
X98688Y356424D01*
X97969Y357500D01*
X98688Y358576D01*
X98971Y360000D01*
X99050Y360096D01*
X102540D01*
X104417Y360469D01*
X106008Y361532D01*
X119468Y374992D01*
X120531Y376583D01*
X120904Y378460D01*
Y381204D01*
X121948Y382565D01*
X122634Y384221D01*
X122868Y385999D01*
X122754Y386867D01*
X123969Y387370D01*
X124143Y387143D01*
X125566Y386051D01*
X127222Y385365D01*
X129000Y385131D01*
X130778Y385365D01*
X132434Y386051D01*
X133857Y387143D01*
X134949Y388566D01*
X135635Y390222D01*
X135869Y392000D01*
X135635Y393778D01*
X134949Y395434D01*
X133857Y396857D01*
X132434Y397948D01*
X130778Y398635D01*
X129077Y398859D01*
X124467Y403468D01*
X122877Y404531D01*
X121000Y404905D01*
X107545D01*
X106184Y405949D01*
X104528Y406635D01*
X102750Y406869D01*
X100972Y406635D01*
X100020Y406240D01*
X98858Y406401D01*
X98404Y406850D01*
X97969Y407500D01*
X98688Y408576D01*
X98971Y410000D01*
X98688Y411424D01*
X97881Y412631D01*
X96674Y413438D01*
X95250Y413722D01*
X82250D01*
X81904Y414005D01*
Y458000D01*
X81531Y459877D01*
X80468Y461468D01*
X74720Y467216D01*
X73129Y468279D01*
X72134Y468477D01*
Y470498D01*
X71838Y471985D01*
X70996Y473245D01*
Y473751D01*
X71838Y475011D01*
X72134Y476498D01*
Y484498D01*
X71838Y485985D01*
X71325Y486754D01*
X71943Y488024D01*
X74332D01*
X74722Y487862D01*
X75159Y487804D01*
X75303Y487620D01*
X75669Y486456D01*
X75357Y485989D01*
X75160Y484998D01*
Y483038D01*
X81750D01*
Y480498D01*
X84290D01*
Y473409D01*
X85750D01*
X86741Y473606D01*
X87166Y473890D01*
X87598Y474160D01*
X88750Y473630D01*
X89003Y473251D01*
X90264Y472409D01*
X91750Y472114D01*
X99750D01*
X101237Y472409D01*
X102497Y473251D01*
X102498Y473254D01*
X103013Y472909D01*
X104500Y472614D01*
X113500D01*
X114987Y472909D01*
X115541Y473280D01*
X116500Y473653D01*
X117459Y473279D01*
X118013Y472909D01*
X119500Y472613D01*
X128500D01*
X129986Y472909D01*
X131247Y473751D01*
X132089Y475011D01*
X132385Y476498D01*
Y484498D01*
X132089Y485985D01*
X131247Y487245D01*
Y487751D01*
X132089Y489011D01*
X132385Y490498D01*
Y498498D01*
X132089Y499985D01*
X131247Y501245D01*
X130925Y501460D01*
Y502950D01*
X131987Y503161D01*
X132501Y503504D01*
X133014Y503161D01*
D02*
G37*
G36*
X200941Y455733D02*
Y437250D01*
X200941Y437250D01*
X201174Y436079D01*
X201837Y435087D01*
X209087Y427837D01*
X209087Y427837D01*
X210079Y427174D01*
X210959Y426999D01*
Y425500D01*
X211114Y424720D01*
X211556Y424058D01*
X210917Y422958D01*
X210606Y422491D01*
X210409Y421500D01*
Y419540D01*
X216998D01*
Y414460D01*
X210409D01*
Y413747D01*
X210291Y413541D01*
X209139Y412719D01*
X207999Y412869D01*
X206221Y412635D01*
X204564Y411949D01*
X203142Y410857D01*
X202050Y409434D01*
X201364Y407778D01*
X201130Y406000D01*
X201364Y404222D01*
X202050Y402566D01*
X202484Y402000D01*
X202050Y401434D01*
X201364Y399778D01*
X201130Y398000D01*
X201360Y396254D01*
X201379Y395987D01*
X200577Y394984D01*
X187792D01*
X184309Y398468D01*
X182718Y399531D01*
X180841Y399904D01*
X179550D01*
X179471Y400000D01*
X179188Y401424D01*
X178469Y402500D01*
X179188Y403576D01*
X179471Y405000D01*
X179550Y405096D01*
X181525D01*
X181753Y404755D01*
X183013Y403913D01*
X184500Y403617D01*
X193500D01*
X194986Y403913D01*
X196247Y404755D01*
X197089Y406015D01*
X197385Y407501D01*
Y415502D01*
X197089Y416988D01*
X196247Y418248D01*
Y418755D01*
X197089Y420015D01*
X197385Y421502D01*
Y429501D01*
X197089Y430988D01*
X196247Y432248D01*
X194986Y433091D01*
X193500Y433386D01*
X191904D01*
Y449000D01*
X191531Y450877D01*
X190468Y452468D01*
X186966Y455970D01*
X185375Y457033D01*
X183498Y457406D01*
X182385D01*
Y458502D01*
X182089Y459989D01*
X181686Y460592D01*
X182365Y461862D01*
X194813D01*
X200941Y455733D01*
D02*
G37*
G36*
X159013Y284413D02*
X160096Y284197D01*
Y234710D01*
X159253Y234147D01*
X158411Y232887D01*
X158115Y231400D01*
Y219400D01*
X158411Y217913D01*
X159253Y216653D01*
X160513Y215811D01*
X162000Y215515D01*
X188000D01*
X189487Y215811D01*
X190366Y216399D01*
X191565Y215901D01*
X191636Y215836D01*
Y207242D01*
X190474Y207008D01*
X190366Y207031D01*
X189831Y207831D01*
X188991Y208393D01*
X188000Y208590D01*
X177540D01*
Y200000D01*
Y191410D01*
X188000D01*
X188991Y191607D01*
X189831Y192169D01*
X190366Y192969D01*
X190474Y192992D01*
X191636Y192757D01*
Y184164D01*
X191565Y184099D01*
X190366Y183601D01*
X189487Y184189D01*
X188000Y184485D01*
X162000D01*
X160513Y184189D01*
X159253Y183347D01*
X158411Y182087D01*
X158115Y180600D01*
Y172255D01*
X157134Y171449D01*
X155750Y171724D01*
X127932D01*
X116474Y183182D01*
Y199316D01*
X118441Y200367D01*
X120743Y202257D01*
X122633Y204559D01*
X124037Y207186D01*
X124291Y208024D01*
X125618D01*
X125963Y206886D01*
X127367Y204259D01*
X129257Y201957D01*
X131559Y200067D01*
X134186Y198663D01*
X134198Y198660D01*
X134009Y197390D01*
X132500D01*
X131509Y197193D01*
X130669Y196631D01*
X130107Y195791D01*
X129910Y194800D01*
Y189840D01*
X140000D01*
X150090D01*
Y194800D01*
X149893Y195791D01*
X149331Y196631D01*
X148491Y197193D01*
X147500Y197390D01*
X145991D01*
X145802Y198660D01*
X145814Y198663D01*
X148441Y200067D01*
X150743Y201957D01*
X152633Y204259D01*
X154037Y206886D01*
X154901Y209736D01*
X155193Y212700D01*
X154901Y215664D01*
X154037Y218514D01*
X152633Y221141D01*
X150743Y223443D01*
X148441Y225333D01*
X145814Y226737D01*
X145342Y226880D01*
X145152Y228216D01*
X154468Y237532D01*
X155531Y239123D01*
X155904Y241000D01*
Y284197D01*
X156987Y284413D01*
X158000Y285090D01*
X159013Y284413D01*
D02*
G37*
G36*
X307911Y621515D02*
X308753Y620255D01*
X310013Y619413D01*
X311500Y619117D01*
X311526D01*
Y511165D01*
X311365Y510778D01*
X311131Y509000D01*
X311365Y507222D01*
X311526Y506835D01*
Y504165D01*
X311365Y503778D01*
X311131Y502000D01*
X311365Y500222D01*
X312052Y498566D01*
X313143Y497143D01*
X314566Y496051D01*
X316222Y495365D01*
X318000Y495131D01*
X318000Y378238D01*
X317673Y377996D01*
X316730Y377675D01*
X315737Y378339D01*
X314250Y378635D01*
X306926D01*
Y402789D01*
X308333Y403868D01*
X310104Y406176D01*
X311217Y408864D01*
X311597Y411749D01*
X311217Y414634D01*
X310104Y417322D01*
X308333Y419630D01*
X306926Y420709D01*
Y479289D01*
X308333Y480368D01*
X310104Y482676D01*
X311217Y485364D01*
X311597Y488249D01*
X311217Y491134D01*
X310104Y493822D01*
X308333Y496130D01*
X306024Y497901D01*
X303336Y499015D01*
X300452Y499394D01*
X297567Y499015D01*
X294879Y497901D01*
X292571Y496130D01*
X292259Y495723D01*
X285249D01*
X282771Y495230D01*
X280671Y493827D01*
X280567Y493723D01*
X271362D01*
X270283Y495130D01*
X267974Y496901D01*
X265286Y498014D01*
X262402Y498394D01*
X259517Y498014D01*
X256829Y496901D01*
X254521Y495130D01*
X252750Y492822D01*
X251636Y490134D01*
X251256Y487249D01*
X251636Y484364D01*
X252750Y481676D01*
X253887Y480194D01*
X253261Y478924D01*
X250454D01*
X247924Y481454D01*
Y494501D01*
X247473Y496768D01*
X246189Y498690D01*
X243193Y501685D01*
X241272Y502970D01*
X240885Y503047D01*
Y504000D01*
X240617Y505345D01*
X240714Y505740D01*
X241182Y506615D01*
X244998D01*
X246485Y506911D01*
X247745Y507753D01*
X248587Y509013D01*
X248883Y510500D01*
Y519500D01*
X248587Y520987D01*
X247745Y522247D01*
Y522753D01*
X248587Y524013D01*
X248883Y525500D01*
Y534500D01*
X248587Y535987D01*
X248448Y536194D01*
X247749Y537253D01*
X248591Y538513D01*
X248835Y539741D01*
X249781Y539865D01*
X251437Y540551D01*
X252860Y541643D01*
X253952Y543065D01*
X254638Y544722D01*
X254872Y546500D01*
X254638Y548278D01*
X253952Y549934D01*
X252860Y551357D01*
X252414Y551699D01*
Y553300D01*
X252860Y553643D01*
X253952Y555065D01*
X254638Y556722D01*
X254872Y558500D01*
X254638Y560278D01*
X253952Y561934D01*
X252860Y563357D01*
X251437Y564448D01*
X250558Y564813D01*
Y566187D01*
X251437Y566552D01*
X252860Y567643D01*
X253661Y568686D01*
X254883Y568838D01*
X255200Y568760D01*
X256557Y567107D01*
X258859Y565217D01*
X261486Y563813D01*
X264336Y562949D01*
X267300Y562657D01*
X270264Y562949D01*
X273114Y563813D01*
X275741Y565217D01*
X278043Y567107D01*
X279933Y569409D01*
X281337Y572036D01*
X281983Y574168D01*
X283330Y574234D01*
X283930Y572787D01*
X285539Y570689D01*
X287637Y569080D01*
X290079Y568069D01*
X290160Y568058D01*
Y577850D01*
Y587642D01*
X290079Y587632D01*
X287637Y586620D01*
X285539Y585011D01*
X283930Y582913D01*
X283330Y581466D01*
X281983Y581532D01*
X281337Y583664D01*
X279933Y586291D01*
X278043Y588593D01*
X276660Y589729D01*
Y591371D01*
X278043Y592507D01*
X279933Y594809D01*
X281337Y597436D01*
X281983Y599568D01*
X283330Y599634D01*
X283930Y598187D01*
X285539Y596089D01*
X287637Y594480D01*
X290079Y593469D01*
X290160Y593458D01*
Y603250D01*
X292700D01*
Y605790D01*
X302492D01*
X302481Y605871D01*
X301470Y608313D01*
X299861Y610411D01*
X297763Y612020D01*
X296316Y612619D01*
X296382Y613967D01*
X298514Y614613D01*
X301141Y616017D01*
X303443Y617907D01*
X305333Y620209D01*
X306384Y622176D01*
X307780D01*
X307911Y621515D01*
D02*
G37*
G36*
X318000Y647591D02*
X311500D01*
X310509Y647394D01*
X309669Y646833D01*
X309107Y645993D01*
X308910Y645002D01*
Y643542D01*
X316000D01*
Y638462D01*
X308910D01*
Y637002D01*
X309031Y636395D01*
X308433Y635372D01*
X308172Y635124D01*
X306384D01*
X305333Y637091D01*
X303443Y639393D01*
X301141Y641283D01*
X298514Y642687D01*
X295664Y643551D01*
X292700Y643843D01*
X289736Y643551D01*
X286886Y642687D01*
X284259Y641283D01*
X282794Y640081D01*
X282397Y640054D01*
X281158Y640381D01*
X280235Y641585D01*
X278643Y642806D01*
X276789Y643574D01*
X274800Y643836D01*
X259800D01*
X257811Y643574D01*
X255957Y642806D01*
X254476Y643271D01*
X254202Y643934D01*
X253110Y645357D01*
X251687Y646448D01*
X250031Y647134D01*
X249085Y647259D01*
X248841Y648486D01*
X247999Y649747D01*
X248409Y651000D01*
X318000D01*
Y647591D01*
D02*
G37*
G36*
X183819Y650967D02*
X184016Y649730D01*
X183419Y649331D01*
X182858Y648491D01*
X182661Y647500D01*
Y645040D01*
X197501D01*
Y639960D01*
X182661D01*
Y637500D01*
X182858Y636509D01*
X182870Y636491D01*
X183339Y635500D01*
X182870Y634508D01*
X182858Y634491D01*
X182661Y633500D01*
Y631040D01*
X197501D01*
Y625960D01*
X182661D01*
Y623500D01*
X182858Y622509D01*
X182870Y622491D01*
X182504Y622247D01*
X181662Y620986D01*
X181644Y620895D01*
X180565Y620448D01*
X179142Y619357D01*
X178051Y617934D01*
X177364Y616278D01*
X177130Y614500D01*
X177364Y612722D01*
X178051Y611065D01*
X179142Y609643D01*
X180565Y608551D01*
X181644Y608104D01*
X181662Y608013D01*
X182504Y606753D01*
X182870Y606508D01*
X182858Y606491D01*
X182661Y605500D01*
Y603040D01*
X197501D01*
Y597960D01*
X182661D01*
Y595500D01*
X182858Y594509D01*
X182870Y594491D01*
X182504Y594247D01*
X181662Y592986D01*
X181366Y591500D01*
Y581500D01*
X181662Y580013D01*
X182005Y579500D01*
X181662Y578986D01*
X181366Y577500D01*
Y567500D01*
X181662Y566013D01*
X182005Y565500D01*
X181662Y564986D01*
X181366Y563499D01*
Y553500D01*
X181662Y552013D01*
X182005Y551500D01*
X181662Y550987D01*
X181366Y549500D01*
Y547370D01*
X180310Y546664D01*
X179778Y546885D01*
X178000Y547119D01*
X176222Y546885D01*
X174566Y546199D01*
X173205Y545154D01*
X171017D01*
X170194Y546424D01*
X170369Y547750D01*
X170135Y549528D01*
X169449Y551184D01*
X168404Y552545D01*
Y554500D01*
X168031Y556377D01*
X166968Y557968D01*
X160468Y564468D01*
X158877Y565531D01*
X157061Y565892D01*
X155684Y566949D01*
X154028Y567635D01*
X152250Y567869D01*
X150472Y567635D01*
X148816Y566949D01*
X147393Y565857D01*
X146301Y564434D01*
X145615Y562778D01*
X145381Y561000D01*
X145615Y559222D01*
X146301Y557566D01*
X147393Y556143D01*
X148816Y555051D01*
X150472Y554365D01*
X152250Y554131D01*
X154028Y554365D01*
X155684Y555051D01*
X155870Y555194D01*
X158562Y552502D01*
X157551Y551184D01*
X156865Y549528D01*
X156631Y547750D01*
X155592Y547032D01*
X154472Y546885D01*
X152816Y546199D01*
X151393Y545107D01*
X150302Y543684D01*
X149615Y542028D01*
X149381Y540250D01*
X149615Y538472D01*
X150302Y536816D01*
X150617Y536405D01*
X149991Y535135D01*
X148501D01*
X147014Y534839D01*
X146501Y534496D01*
X145987Y534839D01*
X144501Y535135D01*
X134501D01*
X133014Y534839D01*
X132501Y534496D01*
X131987Y534839D01*
X130501Y535135D01*
X120501D01*
X119014Y534839D01*
X118501Y534496D01*
X117987Y534839D01*
X116501Y535135D01*
X106501D01*
X105014Y534839D01*
X104501Y534496D01*
X103987Y534839D01*
X102501Y535135D01*
X92501D01*
X91014Y534839D01*
X90501Y534496D01*
X89987Y534839D01*
X88501Y535135D01*
X78501D01*
X77014Y534839D01*
X75754Y533997D01*
X74912Y532737D01*
X74616Y531250D01*
Y506750D01*
X74912Y505263D01*
X75754Y504003D01*
X77014Y503161D01*
X78501Y502865D01*
X88501D01*
X89987Y503161D01*
X90501Y503504D01*
X91014Y503161D01*
X92501Y502865D01*
X101489D01*
X101572Y501595D01*
X99972Y501385D01*
X98978Y500973D01*
X78661D01*
X78278Y501132D01*
X76500Y501366D01*
X74722Y501132D01*
X74338Y500972D01*
X56179D01*
X55997Y501245D01*
X54736Y502087D01*
X53250Y502383D01*
X44250D01*
X42763Y502087D01*
X42209Y501716D01*
X41250Y501343D01*
X40290Y501716D01*
X39736Y502086D01*
X38250Y502382D01*
X29250D01*
X27763Y502086D01*
X26503Y501244D01*
X25661Y499984D01*
X25365Y498498D01*
Y490498D01*
X25661Y489011D01*
X25679Y488983D01*
X24764Y488068D01*
X24736Y488086D01*
X23250Y488382D01*
X14250D01*
X12763Y488086D01*
X11503Y487244D01*
X10661Y485984D01*
X10365Y484497D01*
Y476497D01*
X10661Y475011D01*
X11503Y473750D01*
Y473244D01*
X10661Y471984D01*
X10365Y470497D01*
Y470189D01*
X10029Y469965D01*
X8532Y468468D01*
X7469Y466877D01*
X7096Y465000D01*
Y374250D01*
X7469Y372373D01*
X8532Y370782D01*
X11282Y368032D01*
X12816Y367007D01*
X12615Y365998D01*
Y357998D01*
X12911Y356512D01*
X13753Y355252D01*
X14132Y354998D01*
X14661Y353846D01*
X14391Y353414D01*
X14107Y352990D01*
X13910Y351998D01*
Y350538D01*
X28090D01*
Y351998D01*
X27893Y352990D01*
X27609Y353414D01*
X27339Y353846D01*
X27868Y354998D01*
X28247Y355252D01*
X28845Y356147D01*
X30115Y355762D01*
Y349500D01*
X30411Y348013D01*
X31253Y346753D01*
X32513Y345911D01*
X34000Y345615D01*
X38974D01*
X40032Y344032D01*
X42532Y341532D01*
X43772Y340704D01*
X43829Y340511D01*
Y339485D01*
X43772Y339293D01*
X42532Y338465D01*
X40032Y335965D01*
X38977Y334385D01*
X34000D01*
X32513Y334089D01*
X31253Y333247D01*
X30411Y331987D01*
X30115Y330500D01*
Y326738D01*
X28845Y326353D01*
X28247Y327248D01*
X27868Y327502D01*
X27339Y328654D01*
X27609Y329086D01*
X27892Y329511D01*
X28090Y330502D01*
Y331962D01*
X21000D01*
X13910D01*
Y330502D01*
X14107Y329511D01*
X14391Y329086D01*
X14661Y328654D01*
X14132Y327502D01*
X13753Y327248D01*
X12911Y325988D01*
X12615Y324502D01*
Y316502D01*
X12911Y315015D01*
X13753Y313755D01*
X15013Y312913D01*
X16500Y312617D01*
X25500D01*
X26986Y312913D01*
X28247Y313755D01*
X28956Y314817D01*
X29767Y314825D01*
X30278Y314683D01*
X30411Y314013D01*
X31253Y312753D01*
X32513Y311911D01*
X34000Y311615D01*
X53000D01*
X54486Y311911D01*
X55344Y312484D01*
X56581Y311953D01*
X56614Y311921D01*
Y310000D01*
X56909Y308513D01*
X57751Y307253D01*
X58506Y306749D01*
X58664Y305383D01*
X58623Y305260D01*
X58109Y304491D01*
X57912Y303500D01*
Y301540D01*
X64502D01*
Y299000D01*
X67042D01*
Y291910D01*
X68502D01*
X69493Y292107D01*
X69917Y292391D01*
X70349Y292661D01*
X71502Y292132D01*
X71755Y291753D01*
X73015Y290911D01*
X74502Y290615D01*
X82502D01*
X83988Y290911D01*
X84140Y291013D01*
X85410Y290334D01*
Y286500D01*
X85607Y285509D01*
X86169Y284669D01*
X87009Y284107D01*
X88000Y283910D01*
X93960D01*
Y292000D01*
Y300090D01*
X88000D01*
X87656Y300021D01*
X86386Y300888D01*
Y303500D01*
X86090Y304987D01*
X85248Y306247D01*
X85487Y307615D01*
X86087Y308513D01*
X86135Y308753D01*
X87617Y309692D01*
X88000Y309615D01*
X92803D01*
X93000Y309576D01*
X93197Y309615D01*
X105000D01*
X105640Y309743D01*
X106910Y308783D01*
Y308542D01*
X114000D01*
Y306002D01*
X116540D01*
Y299412D01*
X118500D01*
X119491Y299609D01*
X120331Y300170D01*
X121596Y299777D01*
Y295385D01*
X119998D01*
X118512Y295089D01*
X117252Y294247D01*
X116999Y293869D01*
X116997Y293869D01*
X115219Y293635D01*
X113563Y292948D01*
X112140Y291857D01*
X111048Y290434D01*
X110362Y288778D01*
X110128Y287000D01*
X110362Y285222D01*
X111048Y283566D01*
X112140Y282143D01*
X113563Y281052D01*
X115219Y280365D01*
X116217Y280234D01*
X116879Y279044D01*
X116891Y278888D01*
X116615Y277500D01*
Y261358D01*
X115451Y260320D01*
X115381Y260309D01*
X115000Y260385D01*
X107184D01*
X107090Y260500D01*
Y266460D01*
X99000D01*
X90910D01*
Y260500D01*
X91107Y259509D01*
X91669Y258669D01*
X92509Y258107D01*
X93500Y257910D01*
X95583D01*
X96210Y256640D01*
X96052Y256434D01*
X95365Y254778D01*
X95132Y253000D01*
X95365Y251222D01*
X95872Y250000D01*
X95365Y248778D01*
X95132Y247000D01*
X95365Y245222D01*
X96052Y243566D01*
X97143Y242143D01*
X98566Y241052D01*
X100223Y240365D01*
X102000Y240131D01*
X102989Y240261D01*
X103513Y239911D01*
X105000Y239615D01*
X115000D01*
X116487Y239911D01*
X117747Y240753D01*
X118253D01*
X119513Y239911D01*
X121000Y239615D01*
X131000D01*
X132487Y239911D01*
X133747Y240753D01*
X134589Y242013D01*
X134885Y243500D01*
Y256500D01*
X134589Y257987D01*
X134496Y258126D01*
X135089Y259013D01*
X135385Y260500D01*
Y277500D01*
X135158Y278640D01*
X135458Y279167D01*
Y287000D01*
Y294090D01*
X133998D01*
X133007Y293893D01*
X132674Y293670D01*
X131404Y294301D01*
Y319319D01*
X132577Y319805D01*
X142615Y309767D01*
Y302002D01*
X142911Y300515D01*
X143753Y299255D01*
Y298748D01*
X142911Y297488D01*
X142615Y296002D01*
Y294596D01*
X141998Y294090D01*
X140538D01*
Y287000D01*
Y279910D01*
X141998D01*
X142989Y280107D01*
X143830Y280669D01*
X144391Y281509D01*
X144527Y282195D01*
X145271Y282743D01*
X145858Y282951D01*
X146096Y282833D01*
Y243031D01*
X136532Y233468D01*
X135469Y231877D01*
X135096Y230000D01*
Y227013D01*
X134186Y226737D01*
X131559Y225333D01*
X129257Y223443D01*
X127367Y221141D01*
X125963Y218514D01*
X125709Y217676D01*
X124382D01*
X124037Y218814D01*
X122633Y221441D01*
X120743Y223743D01*
X118441Y225633D01*
X115814Y227037D01*
X112964Y227901D01*
X110000Y228193D01*
X107036Y227901D01*
X104186Y227037D01*
X101559Y225633D01*
X99257Y223743D01*
X98122Y222360D01*
X96479D01*
X95343Y223743D01*
X93041Y225633D01*
X91074Y226684D01*
Y247400D01*
X90582Y249878D01*
X89178Y251978D01*
X86578Y254578D01*
X84478Y255982D01*
X82000Y256474D01*
X80568D01*
X80490Y256640D01*
X81294Y257910D01*
X86500D01*
X87491Y258107D01*
X88331Y258669D01*
X88893Y259509D01*
X89090Y260500D01*
Y266460D01*
X81000D01*
X72910D01*
Y260500D01*
X72815Y260385D01*
X65498D01*
X64622Y260210D01*
X64451Y260250D01*
X63470Y261014D01*
X63385Y261161D01*
Y277500D01*
X63089Y278987D01*
X62247Y280247D01*
X60987Y281089D01*
X59500Y281385D01*
X48500D01*
X47013Y281089D01*
X45753Y280247D01*
X44911Y278987D01*
X44615Y277500D01*
Y260500D01*
X44773Y259708D01*
X44721Y259635D01*
X43064Y258948D01*
X41642Y257857D01*
X40550Y256434D01*
X39864Y254778D01*
X39630Y253000D01*
X39864Y251222D01*
X40370Y250000D01*
X39864Y248778D01*
X39630Y247000D01*
X39864Y245222D01*
X40550Y243566D01*
X41642Y242143D01*
X43064Y241052D01*
X44721Y240365D01*
X46499Y240131D01*
X47487Y240261D01*
X48012Y239911D01*
X49498Y239615D01*
X59498D01*
X60985Y239911D01*
X62245Y240753D01*
X62751D01*
X64012Y239911D01*
X65498Y239615D01*
X75498D01*
X76856Y239885D01*
X77213Y239814D01*
X78126Y239326D01*
Y226684D01*
X76159Y225633D01*
X74694Y224431D01*
X74297Y224405D01*
X73058Y224731D01*
X72135Y225935D01*
X70543Y227156D01*
X68689Y227924D01*
X66700Y228186D01*
X51700D01*
X49711Y227924D01*
X47857Y227156D01*
X46265Y225935D01*
X45044Y224343D01*
X44276Y222489D01*
X44014Y220500D01*
Y205500D01*
X44276Y203511D01*
X45044Y201657D01*
X46265Y200065D01*
X47857Y198844D01*
X49711Y198076D01*
X51700Y197814D01*
X52726D01*
Y192800D01*
X53218Y190322D01*
X54622Y188222D01*
X63047Y179797D01*
X65147Y178393D01*
X67625Y177901D01*
X69059D01*
X69161Y177388D01*
X70003Y176128D01*
X71263Y175286D01*
X72750Y174990D01*
X79250D01*
X80737Y175286D01*
X81997Y176128D01*
X82839Y177388D01*
X83135Y178875D01*
Y189875D01*
X82839Y191362D01*
X81997Y192622D01*
X80737Y193464D01*
X79250Y193760D01*
X72750D01*
X71263Y193464D01*
X70003Y192622D01*
X69971Y192574D01*
X68707Y192449D01*
X65674Y195482D01*
Y197814D01*
X66700D01*
X68689Y198076D01*
X70543Y198844D01*
X72135Y200065D01*
X73058Y201269D01*
X74297Y201595D01*
X74694Y201569D01*
X76159Y200367D01*
X78786Y198963D01*
X81636Y198099D01*
X84600Y197807D01*
X87564Y198099D01*
X90414Y198963D01*
X93041Y200367D01*
X95343Y202257D01*
X96479Y203640D01*
X98122D01*
X99257Y202257D01*
X101559Y200367D01*
X103526Y199316D01*
Y180500D01*
X104018Y178022D01*
X105422Y175922D01*
X120672Y160672D01*
X122772Y159268D01*
X125250Y158776D01*
X136817D01*
X137666Y157506D01*
X137365Y156781D01*
X137131Y155003D01*
X137131Y155001D01*
X136753Y154748D01*
X135972Y153580D01*
X135416Y153464D01*
X134604Y153425D01*
X134331Y153833D01*
X133491Y154394D01*
X132500Y154591D01*
X130540D01*
Y148002D01*
X128000D01*
Y145462D01*
X120910D01*
Y144002D01*
X121107Y143011D01*
X121391Y142586D01*
X121661Y142154D01*
X121132Y141002D01*
X120753Y140749D01*
X119911Y139488D01*
X119615Y138002D01*
Y130002D01*
X119911Y128515D01*
X120753Y127255D01*
X121026Y127073D01*
Y109449D01*
X120724Y109358D01*
X117663Y107721D01*
X115000Y105535D01*
X112337Y107721D01*
X109276Y109358D01*
X108974Y109449D01*
Y127073D01*
X109247Y127255D01*
X110089Y128515D01*
X110385Y130002D01*
Y138002D01*
X110089Y139488D01*
X109247Y140749D01*
X108868Y141002D01*
X108339Y142154D01*
X108609Y142586D01*
X108893Y143011D01*
X109090Y144002D01*
Y145462D01*
X102000D01*
Y148002D01*
X99460D01*
Y154591D01*
X97500D01*
X96509Y154394D01*
X95669Y153833D01*
X95396Y153425D01*
X94584Y153464D01*
X94028Y153580D01*
X93247Y154748D01*
X92868Y155001D01*
X92869Y155003D01*
X92635Y156781D01*
X92302Y157584D01*
X92339Y157638D01*
X92635Y159125D01*
Y168125D01*
X92339Y169612D01*
X91497Y170872D01*
X90237Y171714D01*
X88750Y172010D01*
X82250D01*
X80763Y171714D01*
X79503Y170872D01*
X78661Y169612D01*
X78365Y168125D01*
Y159125D01*
X78661Y157638D01*
X79344Y156617D01*
X79131Y155003D01*
X79131Y155001D01*
X78920Y154860D01*
X77221Y154636D01*
X75564Y153950D01*
X75242Y153703D01*
X73676Y154102D01*
X73247Y154745D01*
X72611Y155170D01*
X72497Y156378D01*
X73339Y157638D01*
X73635Y159125D01*
Y168125D01*
X73339Y169612D01*
X72497Y170872D01*
X71237Y171714D01*
X69750Y172010D01*
X63250D01*
X61763Y171714D01*
X60503Y170872D01*
X59661Y169612D01*
X59365Y168125D01*
Y159125D01*
X59661Y157638D01*
X60148Y156909D01*
X60033Y155778D01*
X59742Y155406D01*
X58753Y154745D01*
X57911Y153485D01*
X57615Y151998D01*
Y143998D01*
X57911Y142512D01*
X58753Y141251D01*
X59132Y140998D01*
X59661Y139846D01*
X59391Y139414D01*
X59107Y138989D01*
X58910Y137998D01*
Y136538D01*
X73090D01*
Y137998D01*
X72893Y138989D01*
X72609Y139414D01*
X72339Y139846D01*
X72868Y140998D01*
X73247Y141251D01*
X73679Y141899D01*
X75243Y142299D01*
X75564Y142053D01*
X77221Y141367D01*
X77605Y141316D01*
X78222Y139954D01*
X77911Y139488D01*
X77615Y138002D01*
Y130002D01*
X77911Y128515D01*
X78753Y127255D01*
X80013Y126413D01*
X81500Y126117D01*
X90500D01*
X91987Y126413D01*
X93247Y127255D01*
X94753D01*
X96013Y126413D01*
X96026Y126410D01*
Y109449D01*
X95724Y109358D01*
X92663Y107721D01*
X89980Y105520D01*
X87779Y102837D01*
X86143Y99775D01*
X85135Y96454D01*
X84795Y93000D01*
X85135Y89546D01*
X86143Y86224D01*
X87779Y83163D01*
X89980Y80480D01*
X92663Y78279D01*
X95724Y76642D01*
X99046Y75635D01*
X102500Y75295D01*
X105954Y75635D01*
X109276Y76642D01*
X112337Y78279D01*
X115000Y80464D01*
X117663Y78279D01*
X120724Y76642D01*
X124046Y75635D01*
X127500Y75295D01*
X130954Y75635D01*
X134276Y76642D01*
X137337Y78279D01*
X140020Y80480D01*
X142221Y83163D01*
X143858Y86224D01*
X144865Y89546D01*
X145205Y93000D01*
X144865Y96454D01*
X143858Y99775D01*
X142221Y102837D01*
X140020Y105520D01*
X137337Y107721D01*
X134276Y109358D01*
X133974Y109449D01*
Y126410D01*
X133987Y126413D01*
X135247Y127255D01*
X136753D01*
X138013Y126413D01*
X139500Y126117D01*
X148500D01*
X149986Y126413D01*
X151247Y127255D01*
X152089Y128515D01*
X152385Y130002D01*
Y138002D01*
X152089Y139488D01*
X151778Y139954D01*
X152395Y141316D01*
X152779Y141367D01*
X154436Y142053D01*
X155858Y143145D01*
X156950Y144567D01*
X157636Y146224D01*
X157870Y148002D01*
X157636Y149779D01*
X156950Y151436D01*
X155858Y152859D01*
X154436Y153950D01*
X152779Y154636D01*
X151080Y154860D01*
X150869Y155001D01*
X150869Y155003D01*
X150635Y156781D01*
X150335Y157506D01*
X151183Y158776D01*
X153068D01*
X167374Y144470D01*
X167253Y143247D01*
X166411Y141987D01*
X166115Y140500D01*
Y123500D01*
X166411Y122013D01*
X167253Y120753D01*
X168513Y119911D01*
X168342Y118650D01*
X168114Y117500D01*
Y108500D01*
X168409Y107013D01*
X169251Y105753D01*
X169524Y105571D01*
Y90091D01*
X169513Y90089D01*
X168253Y89247D01*
X167411Y87987D01*
X167115Y86500D01*
Y53500D01*
X167411Y52013D01*
X168253Y50753D01*
X169513Y49911D01*
X171000Y49615D01*
X195000D01*
X196486Y49911D01*
X197747Y50753D01*
X198589Y52013D01*
X198885Y53500D01*
Y62375D01*
X226172D01*
X226253Y62253D01*
X227513Y61411D01*
X229000Y61115D01*
X253000D01*
X254487Y61411D01*
X255747Y62253D01*
X256589Y63513D01*
X256885Y65000D01*
Y75000D01*
X256589Y76487D01*
X255747Y77747D01*
X254487Y78589D01*
X253000Y78885D01*
X229000D01*
X227513Y78589D01*
X226253Y77747D01*
X226172Y77625D01*
X198885D01*
Y86500D01*
X198589Y87987D01*
X197747Y89247D01*
X196486Y90089D01*
X195000Y90385D01*
X182473D01*
Y105571D01*
X182745Y105753D01*
X182998Y106132D01*
X184151Y106661D01*
X184583Y106391D01*
X185007Y106107D01*
X185998Y105910D01*
X187458D01*
Y113000D01*
Y120090D01*
X185998D01*
X185007Y119893D01*
X183974Y120730D01*
X183904Y120988D01*
X184589Y122013D01*
X184885Y123500D01*
Y140500D01*
X184589Y141987D01*
X183747Y143247D01*
X182486Y144089D01*
X182473Y144092D01*
Y145002D01*
X181980Y147479D01*
X180576Y149580D01*
X166614Y163542D01*
X167100Y164715D01*
X188000D01*
X189487Y165011D01*
X190747Y165853D01*
X191589Y167113D01*
X191885Y168600D01*
Y169696D01*
X194000D01*
X195877Y170069D01*
X197468Y171132D01*
X200008Y173672D01*
X201071Y175263D01*
X201444Y177140D01*
Y235460D01*
X201343Y235968D01*
X202363Y237352D01*
X202680Y237385D01*
X205072Y234992D01*
X206663Y233929D01*
X208540Y233556D01*
X268509D01*
X268556Y233509D01*
Y177140D01*
X268929Y175263D01*
X269992Y173672D01*
X272532Y171132D01*
X274123Y170069D01*
X276000Y169696D01*
X278115D01*
Y168600D01*
X278411Y167113D01*
X279253Y165853D01*
X280513Y165011D01*
X282000Y164715D01*
X308000D01*
X309487Y165011D01*
X310747Y165853D01*
X311589Y167113D01*
X311885Y168600D01*
Y180600D01*
X311589Y182087D01*
X310747Y183347D01*
X309487Y184189D01*
X308000Y184485D01*
X282000D01*
X280513Y184189D01*
X279634Y183601D01*
X278435Y184099D01*
X278364Y184164D01*
Y192757D01*
X279526Y192992D01*
X279634Y192969D01*
X280169Y192169D01*
X281009Y191607D01*
X282000Y191410D01*
X292460D01*
Y200000D01*
Y208590D01*
X282000D01*
X281009Y208393D01*
X280169Y207831D01*
X279634Y207031D01*
X279526Y207008D01*
X278364Y207242D01*
Y215836D01*
X278435Y215901D01*
X279634Y216399D01*
X280513Y215811D01*
X282000Y215515D01*
X308000D01*
X309487Y215811D01*
X310747Y216653D01*
X311589Y217913D01*
X311885Y219400D01*
Y231400D01*
X311589Y232887D01*
X310747Y234147D01*
X309487Y234989D01*
X308000Y235285D01*
X282904D01*
Y237421D01*
X282531Y239297D01*
X281468Y240888D01*
X275888Y246468D01*
X274709Y247256D01*
X275095Y248526D01*
X294835D01*
X295222Y248365D01*
X297000Y248131D01*
X298778Y248365D01*
X299165Y248526D01*
X301835D01*
X302222Y248365D01*
X304000Y248131D01*
X305778Y248365D01*
X307434Y249051D01*
X308857Y250143D01*
X309949Y251566D01*
X310635Y253222D01*
X310869Y255000D01*
X310635Y256778D01*
X309949Y258434D01*
X308857Y259857D01*
X307434Y260949D01*
X305778Y261635D01*
X304000Y261869D01*
X302222Y261635D01*
X301835Y261474D01*
X299165D01*
X298778Y261635D01*
X297000Y261869D01*
X295222Y261635D01*
X294835Y261474D01*
X281771D01*
X281453Y262744D01*
X283741Y263967D01*
X286043Y265857D01*
X287933Y268159D01*
X289337Y270786D01*
X289983Y272918D01*
X291331Y272984D01*
X291930Y271537D01*
X293539Y269439D01*
X295637Y267830D01*
X298079Y266818D01*
X298160Y266808D01*
Y276600D01*
X300700D01*
Y279140D01*
X310492D01*
X310482Y279221D01*
X309470Y281663D01*
X307861Y283761D01*
X305763Y285370D01*
X304316Y285969D01*
X304382Y287317D01*
X306514Y287963D01*
X309141Y289367D01*
X311443Y291257D01*
X313333Y293559D01*
X314737Y296186D01*
X315601Y299036D01*
X315893Y302000D01*
X315601Y304964D01*
X314737Y307814D01*
X313333Y310441D01*
X311443Y312743D01*
X310060Y313878D01*
Y315522D01*
X311443Y316657D01*
X313333Y318959D01*
X314737Y321586D01*
X315601Y324436D01*
X315893Y327400D01*
X315601Y330364D01*
X314737Y333214D01*
X313333Y335841D01*
X311443Y338143D01*
X309141Y340033D01*
X307174Y341084D01*
Y342300D01*
X306682Y344778D01*
X305278Y346878D01*
X304964Y347192D01*
X305450Y348365D01*
X314250D01*
X315737Y348661D01*
X316730Y349325D01*
X317673Y349004D01*
X318000Y348762D01*
X318000Y40497D01*
X316730Y40308D01*
X316320Y41659D01*
X313988Y46024D01*
X310849Y49848D01*
X307023Y52988D01*
X302659Y55320D01*
X297924Y56757D01*
X293000Y57242D01*
X288076Y56757D01*
X283340Y55320D01*
X278977Y52988D01*
X275152Y49848D01*
X272012Y46024D01*
X269680Y41659D01*
X268244Y36924D01*
X267759Y32000D01*
X268244Y27076D01*
X269680Y22341D01*
X272012Y17977D01*
X275152Y14152D01*
X278977Y11012D01*
X283340Y8680D01*
X288076Y7243D01*
X293000Y6758D01*
X297924Y7243D01*
X302659Y8680D01*
X307023Y11012D01*
X310849Y14152D01*
X313988Y17977D01*
X316320Y22341D01*
X316730Y23692D01*
X318000Y23503D01*
Y2000D01*
X2000D01*
X2000Y651000D01*
X22344D01*
X22755Y649747D01*
X21913Y648487D01*
X21617Y647000D01*
Y646424D01*
X18500D01*
X16233Y645973D01*
X14311Y644689D01*
X13262Y643640D01*
X13222Y643635D01*
X11566Y642949D01*
X10143Y641857D01*
X9051Y640434D01*
X8365Y638778D01*
X8131Y637000D01*
X8365Y635222D01*
X9051Y633566D01*
X10143Y632143D01*
X11566Y631051D01*
X13222Y630365D01*
X15000Y630131D01*
X15273Y630167D01*
X16166Y629004D01*
X15865Y628278D01*
X15631Y626500D01*
X15865Y624722D01*
X16552Y623066D01*
X17643Y621643D01*
X19066Y620551D01*
X20722Y619865D01*
X21026Y619825D01*
X21617Y619000D01*
Y610000D01*
X21913Y608513D01*
X22755Y607253D01*
X23578Y606703D01*
Y598297D01*
X22755Y597747D01*
X22502Y597369D01*
X22500Y597369D01*
X20722Y597135D01*
X19066Y596449D01*
X17643Y595357D01*
X16552Y593934D01*
X15865Y592278D01*
X15631Y590500D01*
X15865Y588722D01*
X16552Y587066D01*
X17643Y585643D01*
X19066Y584552D01*
X20722Y583865D01*
X21259Y583795D01*
X21906Y582499D01*
X21901Y582429D01*
X21617Y581000D01*
Y574621D01*
X20561Y573915D01*
X20028Y574136D01*
X18250Y574370D01*
X16472Y574136D01*
X14816Y573450D01*
X13393Y572358D01*
X12301Y570936D01*
X11615Y569279D01*
X11381Y567501D01*
X11615Y565724D01*
X11775Y565337D01*
Y564805D01*
X11615Y564000D01*
Y553000D01*
X11911Y551513D01*
X12753Y550253D01*
X14013Y549411D01*
X15500Y549115D01*
X32500D01*
X33986Y549411D01*
X35247Y550253D01*
X35570Y550737D01*
X36679Y551221D01*
X37134Y550996D01*
X37661Y549848D01*
X37391Y549416D01*
X37107Y548991D01*
X36910Y548000D01*
Y546540D01*
X44000D01*
Y544000D01*
D01*
Y546540D01*
X51090D01*
Y548000D01*
X50893Y548991D01*
X50609Y549416D01*
X50339Y549848D01*
X50651Y550527D01*
X52028Y550631D01*
X52730Y549849D01*
X52660Y549500D01*
Y547040D01*
X82340D01*
Y549500D01*
X82143Y550491D01*
X82131Y550509D01*
X82497Y550753D01*
X83339Y552013D01*
X83341Y552025D01*
X84500D01*
X86978Y552518D01*
X89078Y553922D01*
X91578Y556422D01*
X92982Y558522D01*
X93474Y561000D01*
Y572500D01*
Y584000D01*
X92982Y586478D01*
X91578Y588578D01*
X89078Y591078D01*
X86978Y592482D01*
X84500Y592974D01*
X84172D01*
X83831Y593399D01*
X83385Y594244D01*
X83635Y595500D01*
Y605500D01*
X83339Y606987D01*
X82996Y607500D01*
X83339Y608013D01*
X83635Y609500D01*
Y614174D01*
X84905Y614605D01*
X85643Y613643D01*
X87066Y612551D01*
X88722Y611865D01*
X90500Y611631D01*
X92278Y611865D01*
X93934Y612551D01*
X95295Y613596D01*
X103705D01*
X105066Y612551D01*
X106722Y611865D01*
X108500Y611631D01*
X110278Y611865D01*
X111934Y612551D01*
X113357Y613643D01*
X114449Y615066D01*
X115135Y616722D01*
X115369Y618500D01*
X115135Y620278D01*
X114449Y621934D01*
X113357Y623357D01*
X111934Y624449D01*
X110278Y625135D01*
X108500Y625369D01*
X106722Y625135D01*
X105066Y624449D01*
X103705Y623404D01*
X95295D01*
X93934Y624449D01*
X92278Y625135D01*
X90500Y625369D01*
X88722Y625135D01*
X87066Y624449D01*
X85643Y623357D01*
X84551Y621934D01*
X83430Y622473D01*
X83635Y623500D01*
Y633500D01*
X83339Y634987D01*
X82996Y635500D01*
X83339Y636013D01*
X83635Y637500D01*
Y647500D01*
X83339Y648987D01*
X82842Y649730D01*
X83482Y651000D01*
X183805D01*
X183819Y650967D01*
D02*
G37*
%LPC*%
G36*
X276960Y397590D02*
X274500D01*
X273509Y397393D01*
X272669Y396831D01*
X272107Y395991D01*
X271910Y395000D01*
Y391040D01*
X276960D01*
Y397590D01*
D02*
G37*
G36*
X261210Y377340D02*
X254750D01*
X253759Y377143D01*
X252919Y376581D01*
X252357Y375741D01*
X252160Y374750D01*
Y366040D01*
X261210D01*
Y377340D01*
D02*
G37*
G36*
X272750D02*
X266290D01*
Y366040D01*
X275340D01*
Y374750D01*
X275143Y375741D01*
X274581Y376581D01*
X273741Y377143D01*
X272750Y377340D01*
D02*
G37*
G36*
X276960Y385960D02*
X271910D01*
Y382000D01*
X272107Y381009D01*
X272669Y380169D01*
X273509Y379607D01*
X274500Y379410D01*
X276960D01*
Y385960D01*
D02*
G37*
G36*
X210088Y369460D02*
X206038D01*
Y364910D01*
X207498D01*
X208489Y365107D01*
X209329Y365669D01*
X209891Y366509D01*
X210088Y367500D01*
Y369460D01*
D02*
G37*
G36*
X189090Y516460D02*
X184040D01*
Y504160D01*
X186500D01*
X187491Y504357D01*
X188332Y504919D01*
X188893Y505759D01*
X189090Y506750D01*
Y516460D01*
D02*
G37*
G36*
X213460Y506590D02*
X211000D01*
X210009Y506393D01*
X209169Y505831D01*
X208607Y504991D01*
X208410Y504000D01*
Y500040D01*
X213460D01*
Y506590D01*
D02*
G37*
G36*
X193089Y477958D02*
X189039D01*
Y473408D01*
X190499D01*
X191491Y473605D01*
X192331Y474167D01*
X192892Y475007D01*
X193089Y475998D01*
Y477958D01*
D02*
G37*
G36*
X79210Y477958D02*
X75160D01*
Y475998D01*
X75357Y475007D01*
X75919Y474167D01*
X76759Y473606D01*
X77750Y473409D01*
X79210D01*
Y477958D01*
D02*
G37*
G36*
X98960Y463588D02*
X97000D01*
X96009Y463391D01*
X95169Y462830D01*
X94607Y461989D01*
X94410Y460998D01*
Y459538D01*
X98960D01*
Y463588D01*
D02*
G37*
G36*
X106000D02*
X104040D01*
Y459538D01*
X108590D01*
Y460998D01*
X108393Y461989D01*
X107831Y462830D01*
X106991Y463391D01*
X106000Y463588D01*
D02*
G37*
G36*
X172460Y197460D02*
X159410D01*
Y194000D01*
X159607Y193009D01*
X160169Y192169D01*
X161009Y191607D01*
X162000Y191410D01*
X172460D01*
Y197460D01*
D02*
G37*
G36*
X150090Y184760D02*
X142540D01*
Y177210D01*
X147500D01*
X148491Y177407D01*
X149331Y177969D01*
X149893Y178809D01*
X150090Y179800D01*
Y184760D01*
D02*
G37*
G36*
X137460D02*
X129910D01*
Y179800D01*
X130107Y178809D01*
X130669Y177969D01*
X131509Y177407D01*
X132500Y177210D01*
X137460D01*
Y184760D01*
D02*
G37*
G36*
X172460Y208590D02*
X162000D01*
X161009Y208393D01*
X160169Y207831D01*
X159607Y206991D01*
X159410Y206000D01*
Y202540D01*
X172460D01*
Y208590D01*
D02*
G37*
G36*
X285000Y552242D02*
X280076Y551757D01*
X275340Y550320D01*
X270977Y547988D01*
X267152Y544848D01*
X264012Y541023D01*
X261680Y536660D01*
X260243Y531924D01*
X259758Y527000D01*
X260243Y522076D01*
X261680Y517341D01*
X264012Y512976D01*
X267152Y509151D01*
X270977Y506012D01*
X275340Y503680D01*
X280076Y502243D01*
X285000Y501758D01*
X289924Y502243D01*
X294660Y503680D01*
X299023Y506012D01*
X302848Y509151D01*
X305988Y512976D01*
X308320Y517341D01*
X309757Y522076D01*
X310242Y527000D01*
X309757Y531924D01*
X308320Y536660D01*
X305988Y541023D01*
X302848Y544848D01*
X299023Y547988D01*
X294660Y550320D01*
X289924Y551757D01*
X285000Y552242D01*
D02*
G37*
G36*
X302492Y575310D02*
X295240D01*
Y568058D01*
X295321Y568069D01*
X297763Y569080D01*
X299861Y570689D01*
X301470Y572787D01*
X302481Y575229D01*
X302492Y575310D01*
D02*
G37*
G36*
X295240Y587642D02*
Y580390D01*
X302492D01*
X302481Y580471D01*
X301470Y582913D01*
X299861Y585011D01*
X297763Y586620D01*
X295321Y587632D01*
X295240Y587642D01*
D02*
G37*
G36*
X302492Y600710D02*
X295240D01*
Y593458D01*
X295321Y593469D01*
X297763Y594480D01*
X299861Y596089D01*
X301470Y598187D01*
X302481Y600629D01*
X302492Y600710D01*
D02*
G37*
G36*
X208000Y143090D02*
X205040D01*
Y134540D01*
X210590D01*
Y140500D01*
X210393Y141491D01*
X209831Y142331D01*
X208991Y142893D01*
X208000Y143090D01*
D02*
G37*
G36*
X199960D02*
X197000D01*
X196009Y142893D01*
X195169Y142331D01*
X194607Y141491D01*
X194410Y140500D01*
Y134540D01*
X199960D01*
Y143090D01*
D02*
G37*
G36*
X227000D02*
X224040D01*
Y134540D01*
X229590D01*
Y140500D01*
X229393Y141491D01*
X228831Y142331D01*
X227991Y142893D01*
X227000Y143090D01*
D02*
G37*
G36*
X310492Y274060D02*
X303240D01*
Y266808D01*
X303321Y266818D01*
X305763Y267830D01*
X307861Y269439D01*
X309470Y271537D01*
X310482Y273979D01*
X310492Y274060D01*
D02*
G37*
G36*
X125460Y154591D02*
X123500D01*
X122509Y154394D01*
X121669Y153833D01*
X121107Y152993D01*
X120910Y152002D01*
Y150542D01*
X125460D01*
Y154591D01*
D02*
G37*
G36*
X310590Y197460D02*
X297540D01*
Y191410D01*
X308000D01*
X308991Y191607D01*
X309831Y192169D01*
X310393Y193009D01*
X310590Y194000D01*
Y197460D01*
D02*
G37*
G36*
X308000Y208590D02*
X297540D01*
Y202540D01*
X310590D01*
Y206000D01*
X310393Y206991D01*
X309831Y207831D01*
X308991Y208393D01*
X308000Y208590D01*
D02*
G37*
G36*
X106500Y154591D02*
X104540D01*
Y150542D01*
X109090D01*
Y152002D01*
X108893Y152993D01*
X108331Y153833D01*
X107491Y154394D01*
X106500Y154591D01*
D02*
G37*
G36*
X218960Y143090D02*
X216000D01*
X215009Y142893D01*
X214169Y142331D01*
X213607Y141491D01*
X213410Y140500D01*
Y134540D01*
X218960D01*
Y143090D01*
D02*
G37*
G36*
X196588Y110460D02*
X192538D01*
Y105910D01*
X193998D01*
X194989Y106107D01*
X195830Y106669D01*
X196391Y107509D01*
X196588Y108500D01*
Y110460D01*
D02*
G37*
G36*
X253000Y54590D02*
X243540D01*
Y49540D01*
X255590D01*
Y52000D01*
X255393Y52991D01*
X254831Y53831D01*
X253991Y54393D01*
X253000Y54590D01*
D02*
G37*
G36*
X193998Y120090D02*
X192538D01*
Y115540D01*
X196588D01*
Y117500D01*
X196391Y118491D01*
X195830Y119331D01*
X194989Y119893D01*
X193998Y120090D01*
D02*
G37*
G36*
X231462Y110460D02*
X227412D01*
Y108500D01*
X227609Y107509D01*
X228170Y106669D01*
X229011Y106107D01*
X230002Y105910D01*
X231462D01*
Y110460D01*
D02*
G37*
G36*
X238460Y44460D02*
X226410D01*
Y42000D01*
X226607Y41009D01*
X227169Y40169D01*
X228009Y39607D01*
X229000Y39410D01*
X238460D01*
Y44460D01*
D02*
G37*
G36*
X32000Y57242D02*
X27076Y56757D01*
X22341Y55320D01*
X17977Y52988D01*
X14152Y49848D01*
X11012Y46024D01*
X8680Y41659D01*
X7243Y36924D01*
X6758Y32000D01*
X7243Y27076D01*
X8680Y22341D01*
X11012Y17977D01*
X14152Y14152D01*
X17977Y11012D01*
X22341Y8680D01*
X27076Y7243D01*
X32000Y6758D01*
X36924Y7243D01*
X41659Y8680D01*
X46024Y11012D01*
X49848Y14152D01*
X52988Y17977D01*
X55320Y22341D01*
X56757Y27076D01*
X57242Y32000D01*
X56757Y36924D01*
X55320Y41659D01*
X52988Y46024D01*
X49848Y49848D01*
X46024Y52988D01*
X41659Y55320D01*
X36924Y56757D01*
X32000Y57242D01*
D02*
G37*
G36*
X238460Y54590D02*
X229000D01*
X228009Y54393D01*
X227169Y53831D01*
X226607Y52991D01*
X226410Y52000D01*
Y49540D01*
X238460D01*
Y54590D01*
D02*
G37*
G36*
X255590Y44460D02*
X243540D01*
Y39410D01*
X253000D01*
X253991Y39607D01*
X254831Y40169D01*
X255393Y41009D01*
X255590Y42000D01*
Y44460D01*
D02*
G37*
G36*
X229590Y129460D02*
X224040D01*
Y120910D01*
X227000D01*
X227991Y121107D01*
X228831Y121669D01*
X229393Y122509D01*
X229590Y123500D01*
Y129460D01*
D02*
G37*
G36*
X218960D02*
X213410D01*
Y123500D01*
X213607Y122509D01*
X214169Y121669D01*
X215009Y121107D01*
X216000Y120910D01*
X218960D01*
Y129460D01*
D02*
G37*
G36*
X73090Y131458D02*
X68540D01*
Y127409D01*
X70500D01*
X71491Y127606D01*
X72331Y128167D01*
X72893Y129007D01*
X73090Y129998D01*
Y131458D01*
D02*
G37*
G36*
X63460D02*
X58910D01*
Y129998D01*
X59107Y129007D01*
X59669Y128167D01*
X60509Y127606D01*
X61500Y127409D01*
X63460D01*
Y131458D01*
D02*
G37*
G36*
X254000Y144385D02*
X243000D01*
X241513Y144089D01*
X240253Y143247D01*
X239411Y141987D01*
X239115Y140500D01*
Y123500D01*
X239411Y122013D01*
X240167Y120882D01*
X240211Y120611D01*
X240116Y120485D01*
X239193Y119998D01*
X238798Y119931D01*
X238002Y120090D01*
X236542D01*
Y113000D01*
Y105910D01*
X238002D01*
X238993Y106107D01*
X239417Y106391D01*
X239849Y106661D01*
X241002Y106132D01*
X241255Y105753D01*
X241527Y105571D01*
Y101885D01*
X229000D01*
X227513Y101589D01*
X226253Y100747D01*
X225411Y99487D01*
X225115Y98000D01*
Y88000D01*
X225411Y86513D01*
X226253Y85253D01*
X227513Y84411D01*
X229000Y84115D01*
X253000D01*
X254487Y84411D01*
X255747Y85253D01*
X256589Y86513D01*
X256885Y88000D01*
Y98000D01*
X256589Y99487D01*
X255747Y100747D01*
X254487Y101589D01*
X254476Y101591D01*
Y105571D01*
X254748Y105753D01*
X255590Y107014D01*
X255886Y108500D01*
Y117500D01*
X255590Y118987D01*
X256187Y120379D01*
X256747Y120753D01*
X257048Y121203D01*
X258279Y121365D01*
X259936Y122051D01*
X261358Y123143D01*
X262450Y124566D01*
X263136Y126222D01*
X263370Y128000D01*
X263136Y129778D01*
X262450Y131434D01*
X262016Y132000D01*
X262450Y132566D01*
X263136Y134222D01*
X263370Y136000D01*
X263136Y137778D01*
X262450Y139434D01*
X261358Y140857D01*
X259936Y141948D01*
X258279Y142635D01*
X257048Y142797D01*
X256747Y143247D01*
X255487Y144089D01*
X254000Y144385D01*
D02*
G37*
G36*
X231462Y120090D02*
X230002D01*
X229011Y119893D01*
X228170Y119331D01*
X227609Y118491D01*
X227412Y117500D01*
Y115540D01*
X231462D01*
Y120090D01*
D02*
G37*
G36*
X210590Y129460D02*
X205040D01*
Y120910D01*
X208000D01*
X208991Y121107D01*
X209831Y121669D01*
X210393Y122509D01*
X210590Y123500D01*
Y129460D01*
D02*
G37*
G36*
X199960D02*
X194410D01*
Y123500D01*
X194607Y122509D01*
X195169Y121669D01*
X196009Y121107D01*
X197000Y120910D01*
X199960D01*
Y129460D01*
D02*
G37*
G36*
X96460Y280090D02*
X93500D01*
X92509Y279893D01*
X91669Y279331D01*
X91107Y278491D01*
X90910Y277500D01*
Y271540D01*
X96460D01*
Y280090D01*
D02*
G37*
G36*
X21460Y528960D02*
X12910D01*
Y526000D01*
X13107Y525009D01*
X13669Y524169D01*
X14509Y523607D01*
X15500Y523410D01*
X21460D01*
Y528960D01*
D02*
G37*
G36*
X35090D02*
X26540D01*
Y523410D01*
X32500D01*
X33491Y523607D01*
X34331Y524169D01*
X34893Y525009D01*
X35090Y526000D01*
Y528960D01*
D02*
G37*
G36*
X21460Y539590D02*
X15500D01*
X14509Y539393D01*
X13669Y538831D01*
X13107Y537991D01*
X12910Y537000D01*
Y534040D01*
X21460D01*
Y539590D01*
D02*
G37*
G36*
X32500D02*
X26540D01*
Y534040D01*
X35090D01*
Y537000D01*
X34893Y537991D01*
X34331Y538831D01*
X33491Y539393D01*
X32500Y539590D01*
D02*
G37*
G36*
X51090Y541460D02*
X46540D01*
Y537410D01*
X48500D01*
X49491Y537607D01*
X50331Y538169D01*
X50893Y539009D01*
X51090Y540000D01*
Y541460D01*
D02*
G37*
G36*
X64960Y541960D02*
X52660D01*
Y539500D01*
X52857Y538509D01*
X53419Y537669D01*
X54259Y537108D01*
X55250Y536911D01*
X64960D01*
Y541960D01*
D02*
G37*
G36*
X82340D02*
X70040D01*
Y536911D01*
X79750D01*
X80741Y537108D01*
X81581Y537669D01*
X82143Y538509D01*
X82340Y539500D01*
Y541960D01*
D02*
G37*
G36*
X41460Y541460D02*
X36910D01*
Y540000D01*
X37107Y539009D01*
X37669Y538169D01*
X38509Y537607D01*
X39500Y537410D01*
X41460D01*
Y541460D01*
D02*
G37*
G36*
X61962Y296460D02*
X57912D01*
Y294500D01*
X58109Y293509D01*
X58670Y292669D01*
X59510Y292107D01*
X60502Y291910D01*
X61962D01*
Y296460D01*
D02*
G37*
G36*
X111460Y303462D02*
X106910D01*
Y302002D01*
X107107Y301011D01*
X107513Y300403D01*
X106598Y299487D01*
X105991Y299893D01*
X105000Y300090D01*
X99040D01*
Y294540D01*
X107590D01*
Y297500D01*
X107393Y298491D01*
X106987Y299099D01*
X107902Y300014D01*
X108509Y299609D01*
X109500Y299412D01*
X111460D01*
Y303462D01*
D02*
G37*
G36*
X28090Y345458D02*
X13910D01*
Y343998D01*
X14107Y343007D01*
X14669Y342167D01*
X14950Y341979D01*
X14950Y340521D01*
X14669Y340333D01*
X14107Y339493D01*
X13910Y338502D01*
Y337042D01*
X21000D01*
X28090D01*
Y338502D01*
X27892Y339493D01*
X27331Y340333D01*
X27050Y340521D01*
X27050Y341979D01*
X27331Y342167D01*
X27893Y343007D01*
X28090Y343998D01*
Y345458D01*
D02*
G37*
G36*
X107590Y289460D02*
X99040D01*
Y283910D01*
X105000D01*
X105991Y284107D01*
X106831Y284669D01*
X107393Y285509D01*
X107590Y286500D01*
Y289460D01*
D02*
G37*
G36*
X78460Y280090D02*
X75500D01*
X74509Y279893D01*
X73669Y279331D01*
X73107Y278491D01*
X72910Y277500D01*
Y271540D01*
X78460D01*
Y280090D01*
D02*
G37*
G36*
X86500D02*
X83540D01*
Y271540D01*
X89090D01*
Y277500D01*
X88893Y278491D01*
X88331Y279331D01*
X87491Y279893D01*
X86500Y280090D01*
D02*
G37*
G36*
X104500D02*
X101540D01*
Y271540D01*
X107090D01*
Y277500D01*
X106893Y278491D01*
X106331Y279331D01*
X105491Y279893D01*
X104500Y280090D01*
D02*
G37*
%LPD*%
D10*
X262402Y436999D02*
D03*
Y462999D02*
D03*
Y443499D02*
D03*
Y449999D02*
D03*
Y456499D02*
D03*
D11*
X202500Y132000D02*
D03*
X175500D02*
D03*
X81000Y269000D02*
D03*
X54000D02*
D03*
X99000D02*
D03*
X126000D02*
D03*
X221500Y132000D02*
D03*
X248500D02*
D03*
D12*
X295000Y200000D02*
D03*
X175000D02*
D03*
X295000Y225400D02*
D03*
X175000Y174600D02*
D03*
X295000D02*
D03*
X175000Y225400D02*
D03*
D13*
X102000Y148002D02*
D03*
Y134002D02*
D03*
X86000Y148002D02*
D03*
Y134002D02*
D03*
X128000Y148002D02*
D03*
Y134002D02*
D03*
X144000Y148002D02*
D03*
Y134002D02*
D03*
X316000Y641002D02*
D03*
Y627002D02*
D03*
X44000Y558000D02*
D03*
Y544000D02*
D03*
X124000Y480498D02*
D03*
Y494498D02*
D03*
X144000Y480498D02*
D03*
Y494498D02*
D03*
X109000Y480498D02*
D03*
Y494498D02*
D03*
X159000Y480498D02*
D03*
Y494498D02*
D03*
X114000Y320002D02*
D03*
Y306002D02*
D03*
X101500Y442998D02*
D03*
Y456998D02*
D03*
X21000Y347998D02*
D03*
Y361998D02*
D03*
X21000Y334502D02*
D03*
Y320502D02*
D03*
X33750Y480498D02*
D03*
Y494498D02*
D03*
X48750Y480498D02*
D03*
Y494498D02*
D03*
X174000Y454502D02*
D03*
Y440502D02*
D03*
X66000Y133998D02*
D03*
Y147998D02*
D03*
X18750Y480497D02*
D03*
Y466497D02*
D03*
X63749Y480498D02*
D03*
Y466498D02*
D03*
X66498Y332998D02*
D03*
Y346998D02*
D03*
X151000Y306002D02*
D03*
Y292002D02*
D03*
X165000Y306002D02*
D03*
Y292002D02*
D03*
X179000Y306002D02*
D03*
Y292002D02*
D03*
X193000Y306002D02*
D03*
Y292002D02*
D03*
X189000Y425502D02*
D03*
Y411502D02*
D03*
X207000Y306002D02*
D03*
Y292002D02*
D03*
D14*
X88750Y355000D02*
D03*
Y360000D02*
D03*
Y365000D02*
D03*
Y370000D02*
D03*
Y375000D02*
D03*
Y380000D02*
D03*
Y385000D02*
D03*
Y390000D02*
D03*
Y395000D02*
D03*
Y400000D02*
D03*
Y405000D02*
D03*
Y410000D02*
D03*
X169250D02*
D03*
Y405000D02*
D03*
Y400000D02*
D03*
Y395000D02*
D03*
Y390000D02*
D03*
Y385000D02*
D03*
Y380000D02*
D03*
Y375000D02*
D03*
Y370000D02*
D03*
Y365000D02*
D03*
Y360000D02*
D03*
Y355000D02*
D03*
D15*
X101500Y422750D02*
D03*
X106500D02*
D03*
X111500D02*
D03*
X116500D02*
D03*
X121500D02*
D03*
X126500D02*
D03*
X131500D02*
D03*
X136500D02*
D03*
X141500D02*
D03*
X146500D02*
D03*
X151500D02*
D03*
X156500D02*
D03*
Y342250D02*
D03*
X151500D02*
D03*
X146500D02*
D03*
X141500D02*
D03*
X136500D02*
D03*
X131500D02*
D03*
X126500D02*
D03*
X121500D02*
D03*
X116500D02*
D03*
X111500D02*
D03*
X106500D02*
D03*
X101500D02*
D03*
D16*
X24000Y531500D02*
D03*
Y558500D02*
D03*
X96500Y292000D02*
D03*
Y319000D02*
D03*
D17*
X43502Y642500D02*
D03*
X29502D02*
D03*
X43502Y628500D02*
D03*
X29502D02*
D03*
X43502Y614500D02*
D03*
X29502D02*
D03*
X241252Y642500D02*
D03*
X227252D02*
D03*
X241002Y586500D02*
D03*
X227002D02*
D03*
X241002Y572500D02*
D03*
X227002D02*
D03*
X241002Y558500D02*
D03*
X227002D02*
D03*
X241002Y544500D02*
D03*
X227002D02*
D03*
X226998Y530000D02*
D03*
X240998D02*
D03*
X43502Y590500D02*
D03*
X29502D02*
D03*
X226998Y515000D02*
D03*
X240998D02*
D03*
X43502Y576500D02*
D03*
X29502D02*
D03*
X95750Y480498D02*
D03*
X81750D02*
D03*
X172500Y480498D02*
D03*
X186500D02*
D03*
X248002Y113000D02*
D03*
X234002D02*
D03*
X175998Y113000D02*
D03*
X189998D02*
D03*
X123998Y287000D02*
D03*
X137998D02*
D03*
X189498Y372000D02*
D03*
X203498D02*
D03*
X60251Y380500D02*
D03*
X46252D02*
D03*
X60251Y393000D02*
D03*
X46252D02*
D03*
X60251Y405500D02*
D03*
X46252D02*
D03*
X238998Y330000D02*
D03*
X252998D02*
D03*
X216998Y417000D02*
D03*
X230998D02*
D03*
X216998Y456000D02*
D03*
X230998D02*
D03*
X64498Y314500D02*
D03*
X78498D02*
D03*
X78502Y299000D02*
D03*
X64502D02*
D03*
X241002Y628750D02*
D03*
X227002D02*
D03*
X216998Y482000D02*
D03*
X230998D02*
D03*
X241002Y614750D02*
D03*
X227002D02*
D03*
X241002Y600500D02*
D03*
X227002D02*
D03*
X231002Y469000D02*
D03*
X217002D02*
D03*
X216998Y430000D02*
D03*
X230998D02*
D03*
X216998Y443000D02*
D03*
X230998D02*
D03*
X46248Y418000D02*
D03*
X60248D02*
D03*
X253002Y316000D02*
D03*
X239002D02*
D03*
X253002Y302000D02*
D03*
X239002D02*
D03*
X253002Y274000D02*
D03*
X239002D02*
D03*
X238998Y288000D02*
D03*
X252998D02*
D03*
D18*
X83501Y519000D02*
D03*
X97501D02*
D03*
X111501D02*
D03*
X125501D02*
D03*
X139501D02*
D03*
X153501D02*
D03*
X167501D02*
D03*
X181500D02*
D03*
D19*
X197501Y642500D02*
D03*
Y628500D02*
D03*
Y614500D02*
D03*
Y600500D02*
D03*
Y586500D02*
D03*
Y572500D02*
D03*
Y558499D02*
D03*
Y544500D02*
D03*
X67500Y544500D02*
D03*
Y558500D02*
D03*
Y572500D02*
D03*
Y586500D02*
D03*
Y600500D02*
D03*
Y614500D02*
D03*
Y628500D02*
D03*
Y642500D02*
D03*
D20*
X295500Y388500D02*
D03*
X279500D02*
D03*
X126000Y250000D02*
D03*
X110000D02*
D03*
X54498Y250000D02*
D03*
X70498D02*
D03*
X232000Y402000D02*
D03*
X216000D02*
D03*
X216000Y497500D02*
D03*
X232000D02*
D03*
D21*
X263750Y363500D02*
D03*
X305250D02*
D03*
D22*
X66500Y163625D02*
D03*
X85500D02*
D03*
D23*
X76000Y184375D02*
D03*
D24*
X183000Y70000D02*
D03*
D25*
X241000Y93000D02*
D03*
Y70000D02*
D03*
Y47000D02*
D03*
D26*
X43500Y357000D02*
D03*
Y323000D02*
D03*
D27*
X248000Y38000D02*
Y47000D01*
X234000Y47000D02*
Y47000D01*
Y38000D02*
Y47000D01*
X80500Y275000D02*
X90999D01*
X80500Y263000D02*
X90999D01*
X22500Y626500D02*
X29502D01*
X220000Y626750D02*
X227002D01*
X18500Y640500D02*
X29502D01*
X220000Y612750D02*
X227002D01*
X241002Y546500D02*
X248003D01*
X241252Y640500D02*
X248253D01*
X220250D02*
X227252D01*
X220000Y598500D02*
X227002D01*
X66498Y331248D02*
X73500D01*
X262402Y433400D02*
Y436999D01*
X78498Y316000D02*
X93000D01*
X78502Y299000D02*
Y315497D01*
X143001Y494000D02*
Y517000D01*
X144000Y480498D02*
X172500D01*
X125001Y494000D02*
Y517000D01*
X43502Y614500D02*
X69000D01*
X43502Y628500D02*
X69000D01*
X81750Y473926D02*
X90754Y464922D01*
X81750Y473926D02*
Y480498D01*
X90754Y456998D02*
Y464922D01*
Y456998D02*
X101500D01*
X46252Y380500D02*
Y393000D01*
X200000Y484000D02*
Y493747D01*
X196498Y480498D02*
X200000Y484000D01*
X186500Y480498D02*
X196498D01*
X200000Y493747D02*
X203753Y497500D01*
X208999D01*
X48750Y480498D02*
X63749D01*
X18750Y480497D02*
X33749D01*
X62750Y481748D02*
X62750Y481748D01*
X95750Y480498D02*
X109000D01*
X94000D02*
X95750D01*
X172500Y480498D02*
X174000D01*
X220011Y514525D02*
X226523D01*
X226998Y515000D01*
X203498Y364999D02*
Y372000D01*
X208999Y497500D02*
X216000D01*
X64498Y314500D02*
Y321501D01*
X116997Y287000D02*
X123998D01*
X295000Y200000D02*
X310250D01*
X159750D02*
X175000D01*
X234000Y47000D02*
X241000D01*
X225000D02*
X234000D01*
X86000Y148002D02*
Y155003D01*
Y163125D01*
X15000Y637000D02*
X18500Y640500D01*
X308999Y641002D02*
X316000D01*
X256000Y580000D02*
Y595000D01*
X250500Y600500D02*
X256000Y595000D01*
X241002Y600500D02*
X250500D01*
X258150Y577850D02*
X267300D01*
X256000Y580000D02*
X258150Y577850D01*
X241002Y614750D02*
X255800D01*
X267300Y603250D01*
X241002Y628750D02*
X241102Y628650D01*
X267300D01*
X39250Y393000D02*
X46252D01*
X173999Y635500D02*
X181001D01*
Y631000D02*
X183501Y628500D01*
X181001Y640000D02*
X183501Y642500D01*
X183999Y614500D02*
X191001D01*
X230998Y469003D02*
X231002Y469000D01*
X230998Y469003D02*
Y482000D01*
X216998Y456000D02*
X217002Y456003D01*
Y469000D01*
X209997Y417000D02*
X216998D01*
X210000Y469000D02*
X217002D01*
X13999Y334502D02*
X21000D01*
X13999Y347998D02*
X21000D01*
X39250Y405500D02*
X46252D01*
X22500Y590500D02*
X29502D01*
X241002Y586500D02*
X248003D01*
X241002Y572500D02*
X248003D01*
X241002Y558500D02*
X248003D01*
X29502Y590500D02*
Y614500D01*
Y576500D02*
Y590500D01*
X91500Y282999D02*
Y290000D01*
X101500Y282999D02*
Y290000D01*
X114000Y299000D02*
Y306002D01*
X57500Y299000D02*
X64502D01*
X78498Y315500D02*
X78502Y315497D01*
X93000Y315500D02*
X96500Y319000D01*
X97502Y320002D01*
X114000D01*
X174000Y480498D02*
X174000Y480498D01*
X109000D02*
X124000D01*
X124000Y480498D01*
X199001Y544500D02*
X227002D01*
X199001Y558499D02*
X227002D01*
X199001Y572500D02*
X227002D01*
X199001Y584500D02*
X227002D01*
X183000Y503999D02*
Y511000D01*
X53999Y544500D02*
X61000D01*
X29000Y522499D02*
Y529500D01*
X19000Y522499D02*
Y529500D01*
X44000Y536999D02*
Y544000D01*
X43502Y569498D02*
Y576500D01*
X181001Y631000D02*
Y635500D01*
Y640000D01*
X183501Y628500D02*
X197501D01*
X199001D01*
X183501Y642500D02*
X197501D01*
X199001D01*
X173999Y600500D02*
X197501D01*
X199001D01*
X272499Y388500D02*
X279500D01*
X251749Y358500D02*
X258750D01*
X251749Y368500D02*
X258750D01*
X232003Y497497D02*
X239005D01*
X242000Y494501D01*
Y479000D02*
Y494501D01*
Y479000D02*
X248000Y473000D01*
X242000Y420998D02*
X248000Y426998D01*
X242000Y405496D02*
Y420998D01*
X239005Y402501D02*
X242000Y405496D01*
X232003Y402501D02*
X239005D01*
X256000Y473000D02*
X262402Y466598D01*
Y462999D02*
Y466598D01*
X256000Y426998D02*
X262402Y433400D01*
X248000Y426998D02*
X256000D01*
X248000Y473000D02*
X256000D01*
X238998Y330000D02*
Y337001D01*
X137998Y287000D02*
Y294001D01*
X213499Y138000D02*
X220500D01*
X227000Y113000D02*
X234002D01*
X189998Y113000D02*
X197000D01*
X213499Y126000D02*
X220500D01*
X203500Y132000D02*
X210501D01*
X203000Y138000D02*
X213499D01*
X210501Y132000D02*
X221000D01*
X203000Y126000D02*
X213499D01*
X88001Y269000D02*
X98500D01*
X81000D02*
X88001D01*
X90999Y263000D02*
X98000D01*
X90999Y275000D02*
X98000D01*
X86000Y134002D02*
X102000D01*
X128000D02*
X144000D01*
X102000Y148002D02*
Y155003D01*
Y148002D02*
X109001D01*
X120999D02*
X128000D01*
Y155003D01*
X144000Y148002D02*
X151001D01*
X144000D02*
Y155003D01*
X78999Y148002D02*
X86000D01*
X85500Y163625D02*
X86000Y163125D01*
X66500Y148498D02*
Y163625D01*
X66000Y147998D02*
X66500Y148498D01*
X66000Y126997D02*
Y133998D01*
X78502Y298000D02*
Y299000D01*
X43502Y642500D02*
X67500D01*
X69000D01*
D28*
X300452Y410749D02*
Y488249D01*
X300452Y366298D02*
Y410749D01*
X285249Y489249D02*
X300452D01*
Y488249D02*
Y489249D01*
X262402Y487249D02*
X283249D01*
X261402D02*
X262402D01*
Y412749D02*
X283249D01*
X261402D02*
X262402D01*
X219997Y528750D02*
X226998D01*
X76502Y494498D02*
X109000D01*
X43502Y588960D02*
X65040D01*
X44000Y558000D02*
X68500D01*
X54498Y250000D02*
Y269000D01*
X248002Y93000D02*
Y113000D01*
X127500Y93000D02*
Y134002D01*
X102500Y93000D02*
Y134002D01*
X175998Y113000D02*
Y145002D01*
X110000Y213000D02*
Y218000D01*
X59200Y192800D02*
Y213000D01*
X155750Y165250D02*
X175998Y145002D01*
X125250Y165250D02*
X155750D01*
X110000Y180500D02*
X125250Y165250D01*
X110000Y180500D02*
Y213000D01*
X59200D02*
Y218000D01*
X102000Y253000D02*
X109002D01*
X46499Y253000D02*
X53500D01*
X102000Y247000D02*
X109002D01*
X46499Y247000D02*
X53500D01*
X60251Y380500D02*
X66963D01*
X126000Y250000D02*
Y269000D01*
X124000Y285002D02*
Y286998D01*
Y271000D02*
Y285002D01*
X76501Y494498D02*
X76502Y494498D01*
X48750Y494498D02*
X76501D01*
X48749Y494498D02*
X48750Y494498D01*
X33750Y494498D02*
X48749D01*
X297250Y345750D02*
X300700Y342300D01*
X265750Y345750D02*
X297250D01*
X262000Y342000D02*
X265750Y345750D01*
X191498Y494498D02*
X191500Y494500D01*
X159000Y494498D02*
X191498D01*
X18250Y560500D02*
Y567501D01*
X182497Y370000D02*
X189498D01*
X174000Y433501D02*
Y440502D01*
X39247Y418000D02*
X46248D01*
X318000Y509000D02*
Y625000D01*
Y502000D02*
Y509000D01*
X59200Y192800D02*
X67625Y184375D01*
X76000D01*
X292700Y628650D02*
X312352D01*
X189498Y372000D02*
X189498Y372000D01*
X43500Y558500D02*
X44000Y558000D01*
X24000Y558500D02*
X43500D01*
X68500Y558000D02*
X69000Y558500D01*
X84500D02*
X87000Y561000D01*
X84500Y586500D02*
X87000Y584000D01*
Y561000D02*
Y572500D01*
Y584000D01*
X69000Y572500D02*
X87000D01*
X69000Y558500D02*
X84500D01*
X69000Y586500D02*
X84500D01*
X283249Y487249D02*
X285249Y489249D01*
X300452Y410749D02*
X300452Y410749D01*
X285249Y410749D02*
X300452D01*
X283249Y412749D02*
X285249Y410749D01*
X252998Y330000D02*
X259000D01*
X262000Y333000D01*
Y342000D01*
X300700Y327400D02*
Y342300D01*
X252998Y330000D02*
Y337001D01*
X209997Y482000D02*
X216998D01*
X207999Y406000D02*
X215000D01*
X207999Y398000D02*
X215000D01*
X249500Y136000D02*
X256501D01*
X249500Y128000D02*
X256501D01*
X248002Y113000D02*
X248500Y113498D01*
X248002Y113000D02*
Y131502D01*
X175998Y73000D02*
Y113000D01*
X70498Y250000D02*
X82000D01*
X84600Y247400D01*
Y213000D02*
Y247400D01*
X230000Y255000D02*
X237000D01*
X297000D01*
X304000D01*
D29*
X63749Y463748D02*
X71252D01*
X77000Y458000D01*
X60248Y415000D02*
Y432202D01*
X101500Y422750D02*
Y442998D01*
X169000Y306002D02*
Y315000D01*
X65000Y345498D02*
X101500D01*
X211000Y306002D02*
Y328000D01*
X197000Y306002D02*
Y323000D01*
X183000Y306002D02*
Y319000D01*
X51450Y441000D02*
X60248Y432202D01*
X187000Y425502D02*
Y449000D01*
X174000Y452502D02*
X183498D01*
X106500Y330750D02*
Y342250D01*
Y343500D01*
X141500Y422750D02*
Y453250D01*
X111500Y422750D02*
Y433000D01*
X121500Y342250D02*
Y351250D01*
X88750Y385000D02*
X101500D01*
X156500Y342250D02*
Y351250D01*
X88750Y365000D02*
X102540D01*
X169250Y395000D02*
X180841D01*
X156500Y422750D02*
Y431000D01*
X169250Y390000D02*
X179421D01*
X169250Y355000D02*
X208500D01*
X169250Y385000D02*
X178000D01*
X169250Y410000D02*
X185000D01*
X146500Y422750D02*
Y438000D01*
Y420750D02*
Y422750D01*
X88750Y370000D02*
X97750D01*
X169250Y375000D02*
X189498D01*
X88750Y395000D02*
X97750D01*
X79250D02*
X88750D01*
X116500Y422750D02*
Y431750D01*
X181500Y519000D02*
X183764Y521264D01*
Y532500D01*
X184764Y533500D01*
X188500D01*
X14750Y371500D02*
X62000D01*
X12000Y374250D02*
X14750Y371500D01*
X12000Y374250D02*
Y465000D01*
X13497Y466497D01*
X18750D01*
X62000Y371500D02*
X78500Y355000D01*
X88750D01*
X66963Y380500D02*
X72463Y375000D01*
X88750D01*
X79250Y380000D02*
X88750D01*
X66250Y393000D02*
X79250Y380000D01*
X60251Y405500D02*
X68750D01*
X60251Y393000D02*
X66250D01*
X68750Y405500D02*
X79250Y395000D01*
X80674Y400000D02*
X88750D01*
X77000Y403674D02*
X80674Y400000D01*
X77000Y403674D02*
Y458000D01*
X116500Y431750D02*
X118969Y434219D01*
X133104D01*
X111500Y433000D02*
X116719Y438219D01*
X131447D01*
X133250Y440022D01*
X211250Y430000D02*
X216998D01*
X204000Y437250D02*
X211250Y430000D01*
X204000Y437250D02*
Y457000D01*
X210337Y443000D02*
X216998D01*
X208000Y445337D02*
X210337Y443000D01*
X208000Y445337D02*
Y458657D01*
X197736Y468920D02*
X208000Y458657D01*
X141764Y468920D02*
X197736D01*
X133250Y460407D02*
X141764Y468920D01*
X133250Y440022D02*
Y460407D01*
X137250Y438365D02*
Y458750D01*
X133104Y434219D02*
X137250Y438365D01*
Y458750D02*
X143420Y464921D01*
X196080D01*
X204000Y457000D01*
X124000Y285002D02*
X124500Y285502D01*
X123998Y285000D02*
X124000Y285002D01*
X163500Y547750D02*
Y554500D01*
X157000Y561000D02*
X163500Y554500D01*
X152250Y561000D02*
X157000D01*
X123998Y287000D02*
X126500Y289502D01*
Y342250D01*
X212500Y342500D02*
X216460Y338540D01*
X168750Y342500D02*
X212500D01*
X90500Y618500D02*
X108500D01*
X116000Y378460D02*
Y385999D01*
X102540Y365000D02*
X116000Y378460D01*
X109000Y381250D02*
Y393000D01*
X97750Y370000D02*
X109000Y381250D01*
X97750Y395000D02*
X102750Y400000D01*
X60248Y405503D02*
Y418000D01*
Y405503D02*
X60251Y405500D01*
X230998Y456000D02*
X230998Y456000D01*
X230998Y417000D02*
Y430000D01*
Y443000D02*
Y456000D01*
X106500Y413750D02*
X111500Y408750D01*
X106500Y413750D02*
Y422750D01*
X116500Y356250D02*
X121500Y351250D01*
X147000Y365000D02*
X152500D01*
X155250Y385000D02*
X160250Y380000D01*
X169250D01*
X240998Y530000D02*
Y544496D01*
Y515000D02*
Y530000D01*
Y544496D02*
X241002Y544500D01*
X156250Y540250D02*
X178000D01*
X141500Y420750D02*
Y422750D01*
Y453250D02*
X146500Y458250D01*
X146500Y433000D02*
Y445750D01*
X151500Y450750D01*
X151500Y420500D02*
Y420750D01*
Y438500D02*
X156500Y443500D01*
X151500Y425750D02*
Y438500D01*
X156500Y431000D02*
X161500Y436000D01*
X21000Y361998D02*
X41002D01*
X41002Y320502D02*
X43500Y323000D01*
X21000Y320502D02*
X41002D01*
X116500Y322502D02*
Y342250D01*
X142250Y372500D02*
X152250D01*
X151500Y356250D02*
X156500Y351250D01*
X152250Y372500D02*
X159750Y365000D01*
X169250D01*
X152500Y365000D02*
X157500Y360000D01*
X169250D01*
X43500Y347500D02*
Y357000D01*
Y347500D02*
X46000Y345000D01*
X64500D01*
X46000Y334997D02*
X64500D01*
X43500Y332497D02*
X46000Y334997D01*
X114000Y320002D02*
X116500Y322502D01*
X174000Y454502D02*
X174000Y454502D01*
X183498Y452502D02*
X187000Y449000D01*
X231002Y469000D02*
X239000D01*
X230998Y430000D02*
X238000D01*
X230998Y456000D02*
X239000D01*
X245001Y449999D01*
X239000Y469000D02*
X251501Y456499D01*
X238000Y430000D02*
X251499Y443499D01*
X251501Y456499D02*
X262402D01*
X245001Y449999D02*
X262402D01*
X251499Y443499D02*
X262402D01*
X141500Y330659D02*
X150239Y321920D01*
X136500Y329239D02*
X148358Y317380D01*
X131500Y327818D02*
X146478Y312840D01*
X146500Y342250D02*
X146850Y341900D01*
X141500Y342250D02*
X141850Y341900D01*
X146500Y332080D02*
X152120Y326460D01*
X151500Y333500D02*
X154000Y331000D01*
X151500Y333500D02*
Y342250D01*
X146500Y332080D02*
Y342250D01*
X141500Y330659D02*
Y342250D01*
X136500Y329239D02*
Y342250D01*
X131500Y327818D02*
Y342250D01*
X253002Y316000D02*
X273000D01*
X275300Y318300D01*
X253002Y302000D02*
X275300D01*
X275300Y302000D01*
X252998Y288000D02*
X286700D01*
X253002Y274000D02*
X255602Y276600D01*
X178000Y385000D02*
X182000Y381000D01*
X179421Y390000D02*
X183881Y385540D01*
X180841Y395000D02*
X185761Y390080D01*
X234000Y316000D02*
X239002D01*
X231000Y319000D02*
X234000Y316000D01*
X231000Y304000D02*
X233000Y302000D01*
X239002D01*
X102750Y400000D02*
X121000D01*
X129000Y392000D01*
X218000Y381000D02*
X221000Y378000D01*
X182000Y381000D02*
X218000D01*
X183881Y385540D02*
X220460D01*
X226000Y380000D01*
X185761Y390080D02*
X223920D01*
X231000Y383000D01*
X154000Y331000D02*
X208000D01*
X211000Y328000D01*
X152120Y326460D02*
X193540D01*
X197000Y323000D01*
X150239Y321920D02*
X180080D01*
X183000Y319000D01*
X148358Y317380D02*
X166620D01*
X169000Y315000D01*
X146478Y312840D02*
X153160D01*
X155000Y311000D01*
X151000Y306002D02*
Y311000D01*
X231000Y319000D02*
Y383000D01*
X255602Y276600D02*
X275300D01*
X286700Y288000D02*
X300700Y302000D01*
X275300Y318300D02*
Y327400D01*
X280600Y225400D02*
X295000D01*
X278000Y228000D02*
X280600Y225400D01*
X270540Y238460D02*
X273460Y235540D01*
Y177140D02*
Y235540D01*
Y177140D02*
X276000Y174600D01*
X295000D01*
X272421Y243000D02*
X278000Y237421D01*
Y228000D02*
Y237421D01*
X193000Y292002D02*
X196000Y289002D01*
X165000Y228000D02*
Y292002D01*
X175000Y174600D02*
X194000D01*
X196540Y177140D01*
Y235460D01*
X140000Y212700D02*
Y230000D01*
X43500Y322997D02*
Y323000D01*
Y332497D01*
X64500Y345000D02*
X66498Y346998D01*
X151000Y241000D02*
Y292002D01*
X140000Y230000D02*
X151000Y241000D01*
X179000Y253000D02*
Y292002D01*
Y253000D02*
X196540Y235460D01*
X193000Y254000D02*
Y292002D01*
X216460Y314279D02*
Y338540D01*
X226460Y302120D02*
Y310699D01*
X221000Y316159D02*
X226460Y310699D01*
X231000Y304000D02*
Y312579D01*
X226000Y317579D02*
X231000Y312579D01*
X226000Y317579D02*
Y380000D01*
X221000Y316159D02*
Y378000D01*
X193000Y254000D02*
X208540Y238460D01*
X270540D01*
X207000Y256000D02*
Y292002D01*
Y256000D02*
X220000Y243000D01*
X272421D01*
X231000Y277000D02*
X234000Y274000D01*
X238998D01*
X226460Y302120D02*
X231000Y297579D01*
Y291000D02*
Y297579D01*
Y291000D02*
X234000Y288000D01*
X238998D01*
X226460Y289119D02*
Y295699D01*
Y289119D02*
X231000Y284580D01*
Y277000D02*
Y284580D01*
X221920Y300239D02*
X226460Y295699D01*
X221920Y300239D02*
Y308818D01*
X216460Y314279D02*
X221920Y308818D01*
D30*
X69000Y614500D02*
X69000Y614500D01*
X69000Y628500D02*
X69000Y628500D01*
X43502Y642500D02*
X43502Y642500D01*
D31*
X183000Y70000D02*
X241000D01*
D32*
X262402Y487249D02*
D03*
Y412749D02*
D03*
X300452Y411749D02*
D03*
X300452Y488249D02*
D03*
D33*
X110000Y213000D02*
D03*
X84600D02*
D03*
X292700Y577850D02*
D03*
X267300D02*
D03*
X292700Y603250D02*
D03*
X267300D02*
D03*
X292700Y628650D02*
D03*
X51450Y441000D02*
D03*
X300700Y327400D02*
D03*
X275300Y302000D02*
D03*
X300700D02*
D03*
X275300Y276600D02*
D03*
X300700D02*
D03*
X140000Y212700D02*
D03*
D34*
X59200Y213000D02*
D03*
X26050Y441000D02*
D03*
D35*
X102500Y93000D02*
D03*
X127500D02*
D03*
D36*
X267300Y628650D02*
D03*
X275300Y327400D02*
D03*
X140000Y187300D02*
D03*
D37*
X285000Y527000D02*
D03*
X32000Y32000D02*
D03*
X293000D02*
D03*
D38*
X295000Y242499D02*
D03*
X280000Y152499D02*
D03*
X295000Y122499D02*
D03*
X280000Y92499D02*
D03*
X295000Y62499D02*
D03*
X250000Y392499D02*
D03*
X265000Y182499D02*
D03*
Y122499D02*
D03*
Y62499D02*
D03*
X220000Y212499D02*
D03*
X235000Y182499D02*
D03*
X220000Y152499D02*
D03*
Y92499D02*
D03*
Y32499D02*
D03*
X205000Y182499D02*
D03*
X190000Y152499D02*
D03*
Y92499D02*
D03*
Y32499D02*
D03*
X160000Y632499D02*
D03*
X175000Y422499D02*
D03*
X160000Y92499D02*
D03*
Y32499D02*
D03*
X130000Y632499D02*
D03*
X145000Y602499D02*
D03*
Y62499D02*
D03*
X130000Y32499D02*
D03*
X115000Y602499D02*
D03*
Y542499D02*
D03*
Y62499D02*
D03*
X100000Y32499D02*
D03*
X85000Y182499D02*
D03*
X70000Y92499D02*
D03*
X85000Y62499D02*
D03*
X70000Y32499D02*
D03*
X40000Y512499D02*
D03*
Y212499D02*
D03*
X55000Y182499D02*
D03*
X40000Y152499D02*
D03*
X55000Y122499D02*
D03*
X40000Y92499D02*
D03*
X55000Y62499D02*
D03*
X10000Y572499D02*
D03*
Y512499D02*
D03*
X25000Y422499D02*
D03*
Y302499D02*
D03*
X10000Y272499D02*
D03*
X25000Y242499D02*
D03*
X10000Y212499D02*
D03*
X25000Y182499D02*
D03*
X10000Y152499D02*
D03*
X25000Y122499D02*
D03*
X10000Y92499D02*
D03*
X25000Y62499D02*
D03*
X106500Y330750D02*
D03*
X188500Y533500D02*
D03*
X66963Y380500D02*
D03*
X129500Y380991D02*
D03*
X101750Y435659D02*
D03*
Y494750D02*
D03*
X157500Y571000D02*
D03*
X102000Y253000D02*
D03*
Y247000D02*
D03*
X76500Y494497D02*
D03*
X191500Y494500D02*
D03*
X220011Y514525D02*
D03*
X203498Y364999D02*
D03*
X18250Y567501D02*
D03*
X219997Y528750D02*
D03*
X208999Y497500D02*
D03*
X168750Y342500D02*
D03*
X208500Y355000D02*
D03*
X64498Y321501D02*
D03*
X116997Y287000D02*
D03*
X182497Y370000D02*
D03*
X174000Y433501D02*
D03*
X39247Y418000D02*
D03*
X46499Y247000D02*
D03*
Y253000D02*
D03*
X310250Y200000D02*
D03*
X159750D02*
D03*
X167750Y571000D02*
D03*
X152250Y561000D02*
D03*
X163500Y547750D02*
D03*
X86000Y155003D02*
D03*
X15000Y637000D02*
D03*
X178000Y571000D02*
D03*
X248000Y38000D02*
D03*
X234000D02*
D03*
X308999Y641002D02*
D03*
X108500Y618500D02*
D03*
X90500D02*
D03*
X116000Y385999D02*
D03*
X109000Y393000D02*
D03*
X102750Y400000D02*
D03*
X220000Y598500D02*
D03*
Y612750D02*
D03*
Y626750D02*
D03*
X39250Y393000D02*
D03*
X173999Y600500D02*
D03*
Y635500D02*
D03*
X183999Y614500D02*
D03*
X220250Y640500D02*
D03*
X209997Y417000D02*
D03*
X13999Y334502D02*
D03*
X13999Y347998D02*
D03*
X39250Y405500D02*
D03*
X111500Y408750D02*
D03*
X116500Y356250D02*
D03*
X147000Y365000D02*
D03*
X142250Y372500D02*
D03*
X155250Y385000D02*
D03*
X151500Y356250D02*
D03*
X22500Y590500D02*
D03*
Y626500D02*
D03*
X248003Y546500D02*
D03*
X178000Y540250D02*
D03*
X248003Y586500D02*
D03*
X156250Y540250D02*
D03*
X248003Y572500D02*
D03*
Y558500D02*
D03*
X146500Y458250D02*
D03*
X151500Y450750D02*
D03*
X156500Y443500D02*
D03*
X161500Y436000D02*
D03*
X248253Y640500D02*
D03*
X91500Y282999D02*
D03*
X101500D02*
D03*
X114000Y299000D02*
D03*
X57500Y299000D02*
D03*
X73500Y331248D02*
D03*
X101500Y385000D02*
D03*
X183000Y503999D02*
D03*
X53999Y544500D02*
D03*
X29000Y522499D02*
D03*
X19000D02*
D03*
X44000Y536999D02*
D03*
X43502Y569498D02*
D03*
X272499Y388500D02*
D03*
X251749Y358500D02*
D03*
Y368500D02*
D03*
X210000Y469000D02*
D03*
X238998Y337001D02*
D03*
X129000Y392000D02*
D03*
X318000Y502000D02*
D03*
Y509000D02*
D03*
X252998Y337001D02*
D03*
X137998Y294001D02*
D03*
X209997Y482000D02*
D03*
X207999Y406000D02*
D03*
Y398000D02*
D03*
X213499Y126000D02*
D03*
Y138000D02*
D03*
X256501Y136000D02*
D03*
Y128000D02*
D03*
X225000Y47000D02*
D03*
X227000Y113000D02*
D03*
X197000Y113000D02*
D03*
X210501Y132000D02*
D03*
X88001Y269000D02*
D03*
X90999Y275000D02*
D03*
Y263000D02*
D03*
X102000Y155003D02*
D03*
X109001Y148002D02*
D03*
X120999D02*
D03*
X128000Y155003D02*
D03*
X151001Y148002D02*
D03*
X144000Y155003D02*
D03*
X78999Y148002D02*
D03*
X66000Y126997D02*
D03*
X230000Y255000D02*
D03*
X237000D02*
D03*
X297000D02*
D03*
X304000D02*
D03*
M02*
