M48
;Layer_Color=9474304
;FILE_FORMAT=4:4
METRIC,LZ
;TYPE=PLATED
T1F00S00C0.3000
T2F00S00C0.3000
T3F00S00C0.9000
T4F00S00C1.2000
T5F00S00C1.2500
T6F00S00C3.1000
%
T01
X00066Y00126997
X00078999Y00148002
X00086Y00155003
X00088001Y00269
X00046499Y00253
Y00247
X000575Y00299
X00064498Y00321501
X000735Y00331248
X00013999Y00334502
X00013999Y00347998
X001065Y0033075
X00114Y00299
X00116997Y00287
X001015Y00282999
X000915
X00090999Y00275
Y00263
X00102Y00253
Y00247
X00137998Y00294001
X0016875Y003425
X00238998Y00337001
X00252998
X00237Y00255
X0023
X00297
X00304
X0031025Y002
X00256501Y00136
Y00128
X00227Y00113
X00213499Y00126
X00210501Y00132
X00213499Y00138
X00197Y00113
X00151001Y00148002
X00144Y00155003
X00128
X00120999Y00148002
X00109001
X00102Y00155003
X0015975Y002
X00225Y00047
X00234Y00038
X00248
X00251749Y003585
Y003685
X00272499Y003885
X00207999Y00398
Y00406
X00209997Y00417
X0021Y00469
X00209997Y00482
X00208999Y004975
X001915Y004945
X00183Y00503999
X001885Y005335
X00178Y0054025
X0015625
X001635Y0054775
X0015225Y00561
X001575Y00571
X0016775
X00178
X00173999Y006005
X00183999Y006145
X00173999Y006355
X0022025Y006405
X0022Y0062675
Y0061275
Y005985
X00248003Y005865
Y005725
Y005585
Y005465
X00219997Y0052875
X00220011Y00514525
X00318Y00509
Y00502
X00308999Y00641002
X00248253Y006405
X001085Y006185
X0010175Y0049475
Y00435659
X0010275Y004
X00109Y00393
X00116Y00385999
X001015Y00385
X001295Y00380991
X00129Y00392
X0014225Y003725
X00147Y00365
X001515Y0035625
X0015525Y00385
X00182497Y0037
X00203498Y00364999
X002085Y00355
X001165Y0035625
X001115Y0040875
X001615Y00436
X001565Y004435
X001515Y0045075
X001465Y0045825
X00174Y00433501
X00039247Y00418
X0003925Y004055
Y00393
X00066963Y003805
X000765Y00494497
X00053999Y005445
X00044Y00536999
X00029Y00522499
X00019
X0001825Y00567501
X00043502Y00569498
X000225Y005905
Y006265
X00015Y00637
X000905Y006185
T02
X00025Y00062499
X00055
X00085
X0007Y00092499
X0004
X0001
X00025Y00122499
X00055
X0004Y00152499
X0001
X00025Y00182499
X00055
X00085
X0004Y00212499
X0001
X00025Y00242499
X0001Y00272499
X00025Y00302499
X0007Y00032499
X001
X0013
X0016
X0019
X0022
Y00092499
X0019
X0016
X00145Y00062499
X00115
X00265
X00295
X0028Y00092499
X00295Y00122499
X00265
X0028Y00152499
X00265Y00182499
X00235
X00205
X0022Y00212499
Y00152499
X0019
X00295Y00242499
X0025Y00392499
X00175Y00422499
X00115Y00542499
Y00602499
X00145
X0016Y00632499
X0013
X0001Y00572499
Y00512499
X0004
X00025Y00422499
T03
X000592Y00213
X000846
X0011
X0014Y002127
Y001873
X002753Y002766
Y00302
Y003274
X003007
Y00302
Y002766
X002927Y0057785
X002673
Y0060325
X002927
Y0062865
X002673
X0005145Y00441
X0002605
T04
X00262402Y00412749
X00300452Y00411749
X00300452Y00488249
X00262402Y00487249
T05
X001025Y00093
X001275
T06
X00032Y00032
X00293
X00285Y00527
M30
