G04 Layer_Physical_Order=2*
G04 Layer_Color=16711680*
%FSLAX44Y44*%
%MOMM*%
G71*
G01*
G75*
%ADD27C,0.4000*%
%ADD28C,0.5080*%
%ADD29C,0.2000*%
%ADD32C,1.7500*%
%ADD33C,1.5000*%
%ADD34R,1.5000X1.5000*%
%ADD35C,2.0000*%
%ADD36R,1.5000X1.5000*%
%ADD37C,3.5000*%
%ADD38C,0.6000*%
G36*
X208219Y475365D02*
X209997Y475131D01*
X211775Y475365D01*
X212162Y475526D01*
X215318D01*
X217526Y473318D01*
Y412474D01*
X210163D01*
X209776Y412635D01*
X207999Y412869D01*
X206924Y412727D01*
X205654Y413662D01*
Y475300D01*
X206924Y475902D01*
X208219Y475365D01*
D02*
G37*
G36*
X226237Y538422D02*
X224532Y536718D01*
X223469Y535127D01*
X223001Y534877D01*
X221775Y535385D01*
X219997Y535619D01*
X218219Y535385D01*
X217832Y535224D01*
X197500D01*
X195022Y534732D01*
X192922Y533328D01*
X186922Y527328D01*
X185518Y525228D01*
X185026Y522750D01*
Y496665D01*
X184865Y496278D01*
X184631Y494500D01*
X184865Y492722D01*
X185026Y492335D01*
Y439975D01*
X176165D01*
X175778Y440135D01*
X174531Y440299D01*
X174060Y441331D01*
X174003Y441585D01*
X175031Y443123D01*
X175404Y445000D01*
Y532733D01*
X176674Y533556D01*
X178000Y533381D01*
X179778Y533615D01*
X181434Y534301D01*
X182857Y535393D01*
X183948Y536816D01*
X184635Y538472D01*
X184783Y539596D01*
X225751D01*
X226237Y538422D01*
D02*
G37*
G36*
X144284Y450921D02*
X144647Y450631D01*
X144865Y448972D01*
X145551Y447316D01*
X146643Y445893D01*
X148066Y444801D01*
X149713Y444119D01*
X149631Y443500D01*
X149865Y441722D01*
X150551Y440066D01*
X151643Y438643D01*
X153066Y437551D01*
X154722Y436865D01*
X154745Y436862D01*
X154631Y436000D01*
X154865Y434222D01*
X155551Y432566D01*
X156643Y431143D01*
X158066Y430051D01*
X159722Y429365D01*
X161500Y429131D01*
X163278Y429365D01*
X164934Y430051D01*
X166261Y431070D01*
X166465Y431119D01*
X167729Y430845D01*
X168051Y430066D01*
X169143Y428644D01*
X170566Y427552D01*
X172222Y426866D01*
X174000Y426632D01*
X175778Y426866D01*
X176165Y427026D01*
X185026D01*
Y377698D01*
X184834Y377428D01*
X183756Y376703D01*
X182497Y376869D01*
X180719Y376635D01*
X179062Y375948D01*
X177640Y374857D01*
X176548Y373434D01*
X175862Y371778D01*
X175628Y370000D01*
X175862Y368222D01*
X176548Y366566D01*
X177640Y365143D01*
X179062Y364051D01*
X180719Y363365D01*
X182497Y363131D01*
X183756Y363297D01*
X184834Y362572D01*
X185026Y362302D01*
Y291682D01*
X152818Y259474D01*
X104489D01*
X104478Y259482D01*
X103843Y259608D01*
X103778Y259635D01*
X103571Y259662D01*
X102000Y259974D01*
X100429Y259662D01*
X100223Y259635D01*
X100158Y259608D01*
X99523Y259482D01*
X99512Y259474D01*
X48663D01*
X48276Y259635D01*
X46499Y259869D01*
X45679Y259761D01*
X44724Y260598D01*
Y340568D01*
X47432Y343276D01*
X71500D01*
X73978Y343768D01*
X76078Y345172D01*
X81078Y350172D01*
X82482Y352272D01*
X82974Y354750D01*
Y367453D01*
X84244Y367979D01*
X92271Y359952D01*
X93862Y358889D01*
X95739Y358516D01*
X120799D01*
X126532Y352782D01*
X128123Y351719D01*
X130000Y351346D01*
X146704D01*
X148065Y350302D01*
X149722Y349615D01*
X151500Y349381D01*
X153278Y349615D01*
X154934Y350302D01*
X156357Y351393D01*
X157448Y352816D01*
X158134Y354472D01*
X158369Y356250D01*
X158134Y358028D01*
X157448Y359684D01*
X156357Y361107D01*
X154934Y362199D01*
X153463Y362808D01*
X153635Y363222D01*
X153869Y365000D01*
X153808Y365460D01*
X155011Y366053D01*
X163846Y357219D01*
Y347295D01*
X162801Y345934D01*
X162115Y344278D01*
X161881Y342500D01*
X162115Y340722D01*
X162801Y339066D01*
X163893Y337643D01*
X165316Y336552D01*
X166972Y335865D01*
X168750Y335631D01*
X170528Y335865D01*
X172184Y336552D01*
X173607Y337643D01*
X174699Y339066D01*
X175385Y340722D01*
X175619Y342500D01*
X175385Y344278D01*
X174699Y345934D01*
X173654Y347295D01*
Y359250D01*
X173281Y361127D01*
X172218Y362718D01*
X139468Y395468D01*
X137877Y396531D01*
X136000Y396904D01*
X133795D01*
X132811Y397659D01*
X132501Y399145D01*
X141468Y408112D01*
X142531Y409703D01*
X142904Y411580D01*
Y450186D01*
X144174Y450976D01*
X144284Y450921D01*
D02*
G37*
G36*
X100972Y393366D02*
X102159Y393209D01*
X102131Y393000D01*
X102365Y391222D01*
X103052Y389566D01*
X104143Y388143D01*
X105566Y387052D01*
X107222Y386365D01*
X109000Y386131D01*
X109131Y386000D01*
X109131Y385999D01*
X109365Y384221D01*
X110051Y382565D01*
X111143Y381142D01*
X112565Y380051D01*
X114222Y379365D01*
X116000Y379131D01*
X117778Y379365D01*
X119434Y380051D01*
X120857Y381142D01*
X121948Y382565D01*
X122634Y384221D01*
X122868Y385999D01*
X122754Y386867D01*
X123969Y387370D01*
X124143Y387143D01*
X125566Y386051D01*
X127222Y385365D01*
X129000Y385131D01*
X130778Y385365D01*
X132434Y386051D01*
X133795Y387096D01*
X133969D01*
X140756Y380308D01*
X140233Y379035D01*
X138816Y378448D01*
X137455Y377404D01*
X101531D01*
X98904Y380031D01*
Y392848D01*
X100174Y393696D01*
X100972Y393366D01*
D02*
G37*
G36*
X318000Y515869D02*
X316222Y515635D01*
X314566Y514949D01*
X313143Y513857D01*
X312052Y512434D01*
X311365Y510778D01*
X311131Y509000D01*
X311365Y507222D01*
X311526Y506835D01*
Y504165D01*
X311365Y503778D01*
X311131Y502000D01*
X311365Y500222D01*
X311526Y499835D01*
Y493708D01*
X310256Y493455D01*
X310104Y493822D01*
X308333Y496130D01*
X306024Y497901D01*
X303336Y499015D01*
X300452Y499394D01*
X297567Y499015D01*
X294879Y497901D01*
X292571Y496130D01*
X290800Y493822D01*
X289686Y491134D01*
X289306Y488249D01*
X289686Y485364D01*
X290800Y482676D01*
X292571Y480368D01*
X294879Y478597D01*
X297567Y477483D01*
X300452Y477104D01*
X303336Y477483D01*
X306024Y478597D01*
X308333Y480368D01*
X310104Y482676D01*
X310256Y483043D01*
X311526Y482790D01*
Y417208D01*
X310256Y416955D01*
X310104Y417322D01*
X308333Y419630D01*
X306024Y421401D01*
X303336Y422514D01*
X300452Y422894D01*
X297567Y422514D01*
X294879Y421401D01*
X292571Y419630D01*
X290800Y417322D01*
X289686Y414634D01*
X289306Y411749D01*
X289686Y408864D01*
X290800Y406176D01*
X292571Y403868D01*
X294879Y402097D01*
X297567Y400983D01*
X300452Y400604D01*
X303336Y400983D01*
X306024Y402097D01*
X308333Y403868D01*
X310104Y406176D01*
X310256Y406543D01*
X311526Y406290D01*
Y352474D01*
X257000D01*
X254522Y351982D01*
X252422Y350578D01*
X248420Y346576D01*
X247017Y344476D01*
X246524Y341998D01*
Y339166D01*
X246364Y338779D01*
X246130Y337001D01*
X246364Y335224D01*
X247050Y333567D01*
X248141Y332144D01*
X249564Y331053D01*
X251221Y330367D01*
X252998Y330133D01*
X254776Y330367D01*
X256433Y331053D01*
X257855Y332144D01*
X258844Y333433D01*
X259301Y333418D01*
X260114Y333075D01*
Y319900D01*
X260376Y317911D01*
X261144Y316057D01*
X262365Y314465D01*
X263569Y313542D01*
X263895Y312303D01*
X263869Y311906D01*
X262667Y310441D01*
X261263Y307814D01*
X260399Y304964D01*
X260183Y302770D01*
X258860Y302296D01*
X230474Y330682D01*
Y398000D01*
Y406000D01*
Y476000D01*
X229982Y478478D01*
X228578Y480578D01*
X222578Y486578D01*
X220478Y487981D01*
X218000Y488474D01*
X212162D01*
X211775Y488635D01*
X209997Y488869D01*
X208219Y488635D01*
X206924Y488098D01*
X205654Y488700D01*
Y512469D01*
X210031Y516846D01*
X225385D01*
X227262Y517219D01*
X228853Y518282D01*
X231468Y520897D01*
X232531Y522488D01*
X232904Y524365D01*
Y531219D01*
X233031Y531346D01*
X247002D01*
X248879Y531719D01*
X250470Y532782D01*
X258218Y540530D01*
X259281Y542121D01*
X259654Y543998D01*
Y563557D01*
X260744Y564210D01*
X261486Y563813D01*
X264336Y562949D01*
X267300Y562657D01*
X270264Y562949D01*
X273114Y563813D01*
X275741Y565217D01*
X278043Y567107D01*
X279933Y569409D01*
X281337Y572036D01*
X281983Y574168D01*
X283330Y574234D01*
X283930Y572787D01*
X285539Y570689D01*
X287637Y569080D01*
X290079Y568069D01*
X290160Y568058D01*
Y577850D01*
Y587642D01*
X290079Y587632D01*
X287637Y586620D01*
X285539Y585011D01*
X283930Y582913D01*
X283330Y581466D01*
X281983Y581532D01*
X281337Y583664D01*
X279933Y586291D01*
X278043Y588593D01*
X276660Y589729D01*
Y591371D01*
X278043Y592507D01*
X279933Y594809D01*
X281337Y597436D01*
X281983Y599568D01*
X283330Y599634D01*
X283930Y598187D01*
X285539Y596089D01*
X287637Y594480D01*
X290079Y593469D01*
X290160Y593458D01*
Y603250D01*
X292700D01*
Y605790D01*
X302492D01*
X302481Y605871D01*
X301470Y608313D01*
X299861Y610411D01*
X297763Y612020D01*
X296316Y612619D01*
X296382Y613967D01*
X298514Y614613D01*
X301141Y616017D01*
X303443Y617907D01*
X305333Y620209D01*
X306737Y622836D01*
X307601Y625686D01*
X307893Y628650D01*
X307601Y631614D01*
X306737Y634464D01*
X305333Y637091D01*
X303443Y639393D01*
X301141Y641283D01*
X298514Y642687D01*
X295664Y643551D01*
X292700Y643843D01*
X289736Y643551D01*
X286886Y642687D01*
X284259Y641283D01*
X282794Y640081D01*
X282397Y640054D01*
X281158Y640381D01*
X280235Y641585D01*
X278643Y642806D01*
X276789Y643574D01*
X274800Y643836D01*
X259800D01*
X257811Y643574D01*
X255957Y642806D01*
X254476Y643271D01*
X254202Y643934D01*
X253110Y645357D01*
X251687Y646448D01*
X250031Y647134D01*
X248253Y647369D01*
X246475Y647134D01*
X244819Y646448D01*
X243396Y645357D01*
X242304Y643934D01*
X241618Y642278D01*
X241384Y640500D01*
X241618Y638722D01*
X242304Y637065D01*
X243396Y635643D01*
X244819Y634551D01*
X246475Y633865D01*
X248176Y633641D01*
X249846Y631971D01*
Y594407D01*
X248576Y593293D01*
X248003Y593368D01*
X246225Y593134D01*
X244569Y592448D01*
X243146Y591357D01*
X242055Y589934D01*
X241368Y588278D01*
X241144Y586577D01*
X220472Y565904D01*
X157045D01*
X155684Y566949D01*
X154028Y567635D01*
X152250Y567869D01*
X150884Y567689D01*
X149614Y568494D01*
Y569898D01*
X155562Y575846D01*
X214586D01*
X216463Y576219D01*
X218054Y577282D01*
X223468Y582697D01*
X224531Y584288D01*
X224904Y586164D01*
Y593705D01*
X225949Y595066D01*
X226635Y596722D01*
X226869Y598500D01*
X226635Y600278D01*
X225949Y601934D01*
X224857Y603357D01*
X223435Y604449D01*
X222243Y604942D01*
Y606308D01*
X223435Y606801D01*
X224857Y607893D01*
X225949Y609316D01*
X226635Y610972D01*
X226869Y612750D01*
X226635Y614528D01*
X225949Y616184D01*
X224857Y617607D01*
X223435Y618699D01*
X222556Y619063D01*
Y620437D01*
X223435Y620802D01*
X224857Y621893D01*
X225949Y623316D01*
X226635Y624972D01*
X226869Y626750D01*
X226635Y628528D01*
X225949Y630184D01*
X224857Y631607D01*
X223435Y632699D01*
X222983Y632886D01*
Y634260D01*
X223685Y634551D01*
X225107Y635643D01*
X226199Y637065D01*
X226885Y638722D01*
X227119Y640500D01*
X226885Y642278D01*
X226199Y643934D01*
X225107Y645357D01*
X223685Y646448D01*
X222028Y647134D01*
X220250Y647369D01*
X218472Y647134D01*
X216816Y646448D01*
X215455Y645404D01*
X193500D01*
X191623Y645031D01*
X190032Y643968D01*
X180531Y634467D01*
X179468Y632876D01*
X179095Y630999D01*
Y619295D01*
X178051Y617934D01*
X177364Y616278D01*
X177130Y614500D01*
X177364Y612722D01*
X178051Y611065D01*
X179142Y609643D01*
X180565Y608551D01*
X182221Y607865D01*
X183999Y607631D01*
X185777Y607865D01*
X187433Y608551D01*
X188856Y609643D01*
X189948Y611065D01*
X190634Y612722D01*
X190868Y614500D01*
X190634Y616278D01*
X189948Y617934D01*
X188903Y619295D01*
Y628968D01*
X195531Y635596D01*
X215455D01*
X216816Y634551D01*
X217268Y634364D01*
Y632989D01*
X216566Y632699D01*
X215143Y631607D01*
X214052Y630184D01*
X213365Y628528D01*
X213142Y626827D01*
X204492Y618178D01*
X203429Y616587D01*
X203056Y614710D01*
Y594991D01*
X202799Y594734D01*
X149770D01*
X147893Y594361D01*
X146302Y593298D01*
X132162Y579158D01*
X131099Y577567D01*
X130726Y575690D01*
Y474502D01*
X125452Y469229D01*
X124389Y467638D01*
X124016Y465761D01*
Y418952D01*
X109968Y404905D01*
X107545D01*
X106184Y405949D01*
X104528Y406635D01*
X102750Y406869D01*
X100972Y406635D01*
X100174Y406305D01*
X98904Y407153D01*
Y428324D01*
X99498Y428721D01*
X100174Y428998D01*
X101750Y428791D01*
X103528Y429025D01*
X105184Y429711D01*
X106607Y430802D01*
X107698Y432225D01*
X108385Y433882D01*
X108619Y435659D01*
X108385Y437437D01*
X108224Y437824D01*
Y492585D01*
X108385Y492972D01*
X108619Y494750D01*
X108385Y496528D01*
X107698Y498184D01*
X106607Y499607D01*
X105184Y500699D01*
X103528Y501385D01*
X101750Y501619D01*
X100174Y501411D01*
X99498Y501689D01*
X98904Y502085D01*
Y601969D01*
X108577Y611641D01*
X110278Y611865D01*
X111934Y612551D01*
X113357Y613643D01*
X114449Y615066D01*
X115135Y616722D01*
X115369Y618500D01*
X115135Y620278D01*
X114449Y621934D01*
X113357Y623357D01*
X111934Y624449D01*
X110278Y625135D01*
X108500Y625369D01*
X106722Y625135D01*
X105714Y624717D01*
X104444Y625486D01*
Y629000D01*
X104071Y630877D01*
X103008Y632468D01*
X99508Y635968D01*
X97917Y637031D01*
X96040Y637404D01*
X32532D01*
X29468Y640468D01*
X27877Y641531D01*
X26000Y641904D01*
X19795D01*
X18434Y642949D01*
X16778Y643635D01*
X15000Y643869D01*
X13222Y643635D01*
X11566Y642949D01*
X10143Y641857D01*
X9051Y640434D01*
X8365Y638778D01*
X8131Y637000D01*
X8365Y635222D01*
X9051Y633566D01*
X10143Y632143D01*
X11566Y631051D01*
X13222Y630365D01*
X15000Y630131D01*
X15273Y630167D01*
X16166Y629004D01*
X15865Y628278D01*
X15631Y626500D01*
X15865Y624722D01*
X16552Y623066D01*
X17643Y621643D01*
X19066Y620551D01*
X20722Y619865D01*
X22423Y619641D01*
X27032Y615032D01*
X28623Y613969D01*
X30500Y613596D01*
X85705D01*
X87066Y612551D01*
X87311Y612450D01*
X87559Y611204D01*
X85992Y609638D01*
X84929Y608047D01*
X84556Y606170D01*
Y594451D01*
X83286Y594090D01*
X81877Y595031D01*
X80000Y595404D01*
X27296D01*
X25935Y596449D01*
X24278Y597135D01*
X22500Y597369D01*
X20722Y597135D01*
X19066Y596449D01*
X17643Y595357D01*
X16552Y593934D01*
X15865Y592278D01*
X15631Y590500D01*
X15865Y588722D01*
X16552Y587066D01*
X17643Y585643D01*
X19066Y584552D01*
X20722Y583865D01*
X22500Y583631D01*
X24278Y583865D01*
X25935Y584552D01*
X27296Y585596D01*
X77969D01*
X80016Y583549D01*
Y561550D01*
X78842Y561064D01*
X76578Y563328D01*
X74478Y564732D01*
X72000Y565224D01*
X26053D01*
X25903Y565289D01*
X24986Y566494D01*
X25119Y567501D01*
X24885Y569279D01*
X24199Y570936D01*
X23107Y572358D01*
X21684Y573450D01*
X20028Y574136D01*
X18250Y574370D01*
X16472Y574136D01*
X14816Y573450D01*
X13393Y572358D01*
X12301Y570936D01*
X11615Y569279D01*
X11381Y567501D01*
X11615Y565724D01*
X11775Y565337D01*
Y561500D01*
X12268Y559022D01*
X13672Y556922D01*
X16422Y554172D01*
X18522Y552768D01*
X21000Y552276D01*
X69318D01*
X70026Y551568D01*
Y496662D01*
X69865Y496274D01*
X69631Y494497D01*
X69865Y492719D01*
X70026Y492332D01*
Y424474D01*
X41412D01*
X41025Y424635D01*
X39247Y424869D01*
X37469Y424635D01*
X35812Y423949D01*
X34390Y422857D01*
X33298Y421434D01*
X32612Y419778D01*
X32378Y418000D01*
X32612Y416222D01*
X33298Y414566D01*
X34390Y413143D01*
X35812Y412051D01*
X37469Y411365D01*
X39247Y411131D01*
X41025Y411365D01*
X41412Y411526D01*
X70026D01*
Y387736D01*
X68756Y387129D01*
X68741Y387135D01*
X66963Y387369D01*
X65185Y387135D01*
X63528Y386449D01*
X62106Y385357D01*
X61014Y383934D01*
X60328Y382278D01*
X60094Y380500D01*
X60328Y378722D01*
X61014Y377066D01*
X62106Y375643D01*
X63528Y374552D01*
X65185Y373865D01*
X66963Y373631D01*
X68741Y373865D01*
X68756Y373871D01*
X70026Y373264D01*
Y368505D01*
X70024Y368499D01*
X70026Y368492D01*
Y357432D01*
X68818Y356224D01*
X44750D01*
X42272Y355732D01*
X40172Y354328D01*
X33672Y347828D01*
X32268Y345728D01*
X31776Y343250D01*
Y253000D01*
Y247000D01*
X32268Y244522D01*
X33672Y242422D01*
X35772Y241018D01*
X38250Y240526D01*
X44334D01*
X44721Y240365D01*
X46499Y240131D01*
X48276Y240365D01*
X48663Y240526D01*
X99512D01*
X99523Y240518D01*
X100158Y240392D01*
X100223Y240365D01*
X100429Y240338D01*
X102000Y240026D01*
X103571Y240338D01*
X103778Y240365D01*
X103843Y240392D01*
X104478Y240518D01*
X105016Y240878D01*
X105435Y241052D01*
X106506Y241873D01*
X106578Y241922D01*
X106588Y241937D01*
X106857Y242143D01*
X107949Y243566D01*
X108635Y245222D01*
X108806Y246526D01*
X155500D01*
X157978Y247018D01*
X160078Y248422D01*
X196078Y284422D01*
X197482Y286522D01*
X197974Y289000D01*
Y370000D01*
Y385181D01*
X199148Y385667D01*
X207846Y376969D01*
Y361783D01*
X206722Y361635D01*
X205066Y360949D01*
X203643Y359857D01*
X202551Y358434D01*
X201865Y356778D01*
X201631Y355000D01*
X201865Y353222D01*
X202551Y351566D01*
X203643Y350143D01*
X205066Y349052D01*
X206722Y348365D01*
X208500Y348131D01*
X210278Y348365D01*
X211934Y349052D01*
X213357Y350143D01*
X214449Y351566D01*
X215135Y353222D01*
X215359Y354923D01*
X216218Y355782D01*
X216256Y355839D01*
X217526Y355453D01*
Y328000D01*
X218018Y325522D01*
X219422Y323422D01*
X250027Y292817D01*
Y138165D01*
X249867Y137778D01*
X249632Y136000D01*
X249867Y134222D01*
X250027Y133835D01*
Y130165D01*
X249867Y129778D01*
X249632Y128000D01*
X249867Y126222D01*
X250553Y124566D01*
X251644Y123143D01*
X253067Y122051D01*
X254723Y121365D01*
X256501Y121131D01*
X258279Y121365D01*
X259936Y122051D01*
X261358Y123143D01*
X262450Y124566D01*
X263136Y126222D01*
X263370Y128000D01*
X263136Y129778D01*
X262976Y130165D01*
Y133835D01*
X263136Y134222D01*
X263370Y136000D01*
X263136Y137778D01*
X262976Y138165D01*
Y265898D01*
X264172Y266326D01*
X264557Y265857D01*
X266859Y263967D01*
X269486Y262563D01*
X272336Y261699D01*
X275300Y261407D01*
X278264Y261699D01*
X281114Y262563D01*
X283741Y263967D01*
X286043Y265857D01*
X287933Y268159D01*
X289337Y270786D01*
X289983Y272918D01*
X291331Y272984D01*
X291930Y271537D01*
X293539Y269439D01*
X295637Y267830D01*
X298079Y266818D01*
X298160Y266808D01*
Y276600D01*
X303240D01*
Y266808D01*
X303321Y266818D01*
X305763Y267830D01*
X307861Y269439D01*
X309470Y271537D01*
X310256Y273433D01*
X311526Y273181D01*
Y263932D01*
X309068Y261474D01*
X306165D01*
X305778Y261635D01*
X304000Y261869D01*
X302222Y261635D01*
X301835Y261474D01*
X299165D01*
X298778Y261635D01*
X297000Y261869D01*
X295222Y261635D01*
X293566Y260949D01*
X292143Y259857D01*
X291052Y258434D01*
X290365Y256778D01*
X290131Y255000D01*
X290365Y253222D01*
X291052Y251566D01*
X292143Y250143D01*
X293566Y249051D01*
X295222Y248365D01*
X297000Y248131D01*
X298778Y248365D01*
X299165Y248526D01*
X301835D01*
X302222Y248365D01*
X304000Y248131D01*
X305778Y248365D01*
X306165Y248526D01*
X311750D01*
X314228Y249018D01*
X316328Y250422D01*
X316827Y250920D01*
X318000Y250434D01*
X318000Y40497D01*
X316730Y40308D01*
X316320Y41659D01*
X313988Y46024D01*
X310849Y49848D01*
X307023Y52988D01*
X302659Y55320D01*
X297924Y56757D01*
X293000Y57242D01*
X288076Y56757D01*
X283340Y55320D01*
X278977Y52988D01*
X275152Y49848D01*
X272012Y46024D01*
X269680Y41659D01*
X268244Y36924D01*
X267759Y32000D01*
X268244Y27076D01*
X269680Y22341D01*
X272012Y17977D01*
X275152Y14152D01*
X278977Y11012D01*
X283340Y8680D01*
X288076Y7243D01*
X293000Y6758D01*
X297924Y7243D01*
X302659Y8680D01*
X307023Y11012D01*
X310849Y14152D01*
X313988Y17977D01*
X316320Y22341D01*
X316730Y23692D01*
X318000Y23503D01*
Y2000D01*
X2000D01*
X2000Y651000D01*
X318000D01*
X318000Y515869D01*
D02*
G37*
%LPC*%
G36*
X73500Y338117D02*
X71722Y337883D01*
X70065Y337197D01*
X68643Y336105D01*
X67551Y334683D01*
X66865Y333026D01*
X66631Y331248D01*
X66865Y329470D01*
X66967Y329225D01*
X66629Y328692D01*
X66030Y328169D01*
X64498Y328370D01*
X62720Y328136D01*
X61064Y327450D01*
X59641Y326358D01*
X58550Y324936D01*
X57864Y323279D01*
X57629Y321501D01*
X57864Y319724D01*
X58550Y318067D01*
X59641Y316644D01*
X61064Y315553D01*
X62720Y314867D01*
X64498Y314633D01*
X66276Y314867D01*
X66663Y315027D01*
X73567D01*
X106172Y282422D01*
X108272Y281018D01*
X110750Y280526D01*
X114832D01*
X115219Y280365D01*
X116997Y280131D01*
X118775Y280365D01*
X120431Y281052D01*
X121854Y282143D01*
X122945Y283566D01*
X123632Y285222D01*
X123866Y287000D01*
X123632Y288778D01*
X122945Y290434D01*
X121854Y291857D01*
X120431Y292948D01*
X118775Y293635D01*
X116997Y293869D01*
X115219Y293635D01*
X114832Y293474D01*
X113432D01*
X81832Y325074D01*
X82358Y326344D01*
X101297D01*
X101643Y325893D01*
X103066Y324802D01*
X104722Y324115D01*
X106500Y323881D01*
X108278Y324115D01*
X109934Y324802D01*
X111357Y325893D01*
X112449Y327316D01*
X113135Y328972D01*
X113369Y330750D01*
X113135Y332528D01*
X112449Y334184D01*
X111357Y335607D01*
X109934Y336699D01*
X108278Y337385D01*
X106500Y337619D01*
X104722Y337385D01*
X103066Y336699D01*
X102354Y336152D01*
X78295D01*
X76934Y337197D01*
X75278Y337883D01*
X73500Y338117D01*
D02*
G37*
G36*
X237000Y261869D02*
X235222Y261635D01*
X234835Y261474D01*
X232165D01*
X231778Y261635D01*
X230000Y261869D01*
X228222Y261635D01*
X227835Y261474D01*
X221500D01*
X219022Y260982D01*
X216922Y259578D01*
X190818Y233474D01*
X98600D01*
X96122Y232982D01*
X94022Y231578D01*
X89698Y227254D01*
X87564Y227901D01*
X84600Y228193D01*
X81636Y227901D01*
X78786Y227037D01*
X76159Y225633D01*
X74694Y224431D01*
X74297Y224405D01*
X73058Y224731D01*
X72135Y225935D01*
X70543Y227156D01*
X68689Y227924D01*
X66700Y228186D01*
X51700D01*
X49711Y227924D01*
X47857Y227156D01*
X46265Y225935D01*
X45044Y224343D01*
X44276Y222489D01*
X44014Y220500D01*
Y205500D01*
X44276Y203511D01*
X45044Y201657D01*
X46265Y200065D01*
X47857Y198844D01*
X49711Y198076D01*
X51700Y197814D01*
X66700D01*
X68689Y198076D01*
X70543Y198844D01*
X72135Y200065D01*
X73058Y201269D01*
X74297Y201595D01*
X74694Y201569D01*
X76159Y200367D01*
X78786Y198963D01*
X81636Y198099D01*
X84600Y197807D01*
X87564Y198099D01*
X90414Y198963D01*
X93041Y200367D01*
X95343Y202257D01*
X96479Y203640D01*
X98122D01*
X99257Y202257D01*
X101559Y200367D01*
X104186Y198963D01*
X107036Y198099D01*
X110000Y197807D01*
X112964Y198099D01*
X115814Y198963D01*
X118441Y200367D01*
X120743Y202257D01*
X122633Y204559D01*
X124037Y207186D01*
X124291Y208024D01*
X125618D01*
X125963Y206886D01*
X127367Y204259D01*
X129257Y201957D01*
X131559Y200067D01*
X134186Y198663D01*
X134198Y198660D01*
X134009Y197390D01*
X132500D01*
X131509Y197193D01*
X130669Y196631D01*
X130107Y195791D01*
X129910Y194800D01*
Y189840D01*
X140000D01*
X150090D01*
Y194800D01*
X149893Y195791D01*
X149331Y196631D01*
X148491Y197193D01*
X147500Y197390D01*
X145991D01*
X145802Y198660D01*
X145814Y198663D01*
X148441Y200067D01*
X150743Y201957D01*
X152633Y204259D01*
X154037Y206886D01*
X154901Y209736D01*
X155193Y212700D01*
X154901Y215664D01*
X154037Y218514D01*
X153544Y219436D01*
X154197Y220526D01*
X193500D01*
X195978Y221018D01*
X198078Y222422D01*
X224182Y248526D01*
X227835D01*
X228222Y248365D01*
X230000Y248131D01*
X231778Y248365D01*
X232165Y248526D01*
X234835D01*
X235222Y248365D01*
X237000Y248131D01*
X238778Y248365D01*
X240434Y249051D01*
X241857Y250143D01*
X242948Y251566D01*
X243635Y253222D01*
X243869Y255000D01*
X243635Y256778D01*
X242948Y258434D01*
X241857Y259857D01*
X240434Y260949D01*
X238778Y261635D01*
X237000Y261869D01*
D02*
G37*
G36*
X150090Y184760D02*
X142540D01*
Y177210D01*
X147500D01*
X148491Y177407D01*
X149331Y177969D01*
X149893Y178809D01*
X150090Y179800D01*
Y184760D01*
D02*
G37*
G36*
X302492Y600710D02*
X295240D01*
Y593458D01*
X295321Y593469D01*
X297763Y594480D01*
X299861Y596089D01*
X301470Y598187D01*
X302481Y600629D01*
X302492Y600710D01*
D02*
G37*
G36*
X127500Y110705D02*
X124046Y110365D01*
X120724Y109358D01*
X117663Y107721D01*
X115000Y105535D01*
X112337Y107721D01*
X109276Y109358D01*
X105954Y110365D01*
X102500Y110705D01*
X99046Y110365D01*
X95724Y109358D01*
X92663Y107721D01*
X89980Y105520D01*
X87779Y102837D01*
X86143Y99775D01*
X85135Y96454D01*
X84795Y93000D01*
X85135Y89546D01*
X86143Y86224D01*
X87779Y83163D01*
X89980Y80480D01*
X92663Y78279D01*
X95724Y76642D01*
X99046Y75635D01*
X102500Y75295D01*
X105954Y75635D01*
X109276Y76642D01*
X112337Y78279D01*
X115000Y80464D01*
X117663Y78279D01*
X120724Y76642D01*
X124046Y75635D01*
X127500Y75295D01*
X130954Y75635D01*
X134276Y76642D01*
X137337Y78279D01*
X140020Y80480D01*
X142221Y83163D01*
X143858Y86224D01*
X144865Y89546D01*
X145205Y93000D01*
X144865Y96454D01*
X143858Y99775D01*
X142221Y102837D01*
X140020Y105520D01*
X137337Y107721D01*
X134276Y109358D01*
X130954Y110365D01*
X127500Y110705D01*
D02*
G37*
G36*
X32000Y57242D02*
X27076Y56757D01*
X22341Y55320D01*
X17977Y52988D01*
X14152Y49848D01*
X11012Y46024D01*
X8680Y41659D01*
X7243Y36924D01*
X6758Y32000D01*
X7243Y27076D01*
X8680Y22341D01*
X11012Y17977D01*
X14152Y14152D01*
X17977Y11012D01*
X22341Y8680D01*
X27076Y7243D01*
X32000Y6758D01*
X36924Y7243D01*
X41659Y8680D01*
X46024Y11012D01*
X49848Y14152D01*
X52988Y17977D01*
X55320Y22341D01*
X56757Y27076D01*
X57242Y32000D01*
X56757Y36924D01*
X55320Y41659D01*
X52988Y46024D01*
X49848Y49848D01*
X46024Y52988D01*
X41659Y55320D01*
X36924Y56757D01*
X32000Y57242D01*
D02*
G37*
G36*
X137460Y184760D02*
X129910D01*
Y179800D01*
X130107Y178809D01*
X130669Y177969D01*
X131509Y177407D01*
X132500Y177210D01*
X137460D01*
Y184760D01*
D02*
G37*
G36*
X139149Y164638D02*
X139149Y164637D01*
X139149Y164638D01*
X138353Y164479D01*
X137662Y164342D01*
X137662Y164342D01*
X137662Y164342D01*
X136889Y163825D01*
X136402Y163500D01*
X136402Y163500D01*
X136402Y163500D01*
X135503Y162602D01*
X135503Y162602D01*
X135503Y162602D01*
X135064Y161945D01*
X134661Y161342D01*
X134661Y161342D01*
X134661Y161341D01*
X134508Y160571D01*
X134365Y159855D01*
X134365Y159855D01*
X134365Y159855D01*
Y145924D01*
X95635D01*
Y160750D01*
X95339Y162237D01*
X94497Y163497D01*
X93237Y164339D01*
X91750Y164635D01*
X73250D01*
X71763Y164339D01*
X70503Y163497D01*
X69661Y162237D01*
X69365Y160750D01*
Y127500D01*
X69661Y126013D01*
X70503Y124753D01*
X71763Y123911D01*
X73250Y123615D01*
X156750D01*
X158237Y123911D01*
X159497Y124753D01*
X160339Y126013D01*
X160635Y127500D01*
Y160749D01*
X160485Y161501D01*
X160339Y162235D01*
X160339Y162236D01*
X160339Y162236D01*
X159906Y162884D01*
X159497Y163496D01*
X159497Y163496D01*
X159497Y163496D01*
X158855Y163926D01*
X158237Y164338D01*
X158237Y164338D01*
X158237Y164338D01*
X157490Y164487D01*
X156751Y164634D01*
X139149Y164638D01*
D02*
G37*
G36*
X51450Y456193D02*
X48486Y455901D01*
X45636Y455037D01*
X43009Y453633D01*
X40707Y451743D01*
X38817Y449441D01*
X37413Y446814D01*
X37410Y446802D01*
X36140Y446991D01*
Y448500D01*
X35943Y449491D01*
X35381Y450331D01*
X34541Y450893D01*
X33550Y451090D01*
X28590D01*
Y441000D01*
Y430910D01*
X33550D01*
X34541Y431107D01*
X35381Y431669D01*
X35943Y432509D01*
X36140Y433500D01*
Y435009D01*
X37410Y435198D01*
X37413Y435186D01*
X38817Y432559D01*
X40707Y430257D01*
X43009Y428367D01*
X45636Y426963D01*
X48486Y426099D01*
X51450Y425807D01*
X54414Y426099D01*
X57264Y426963D01*
X59891Y428367D01*
X62193Y430257D01*
X64083Y432559D01*
X65487Y435186D01*
X66351Y438036D01*
X66643Y441000D01*
X66351Y443964D01*
X65487Y446814D01*
X64083Y449441D01*
X62193Y451743D01*
X59891Y453633D01*
X57264Y455037D01*
X54414Y455901D01*
X51450Y456193D01*
D02*
G37*
G36*
X23510Y451090D02*
X18550D01*
X17559Y450893D01*
X16719Y450331D01*
X16157Y449491D01*
X15960Y448500D01*
Y443540D01*
X23510D01*
Y451090D01*
D02*
G37*
G36*
X285000Y552242D02*
X280076Y551757D01*
X275340Y550320D01*
X270977Y547988D01*
X267152Y544848D01*
X264012Y541023D01*
X261680Y536660D01*
X260243Y531924D01*
X259758Y527000D01*
X260243Y522076D01*
X261680Y517341D01*
X264012Y512976D01*
X267152Y509151D01*
X270977Y506012D01*
X275340Y503680D01*
X280076Y502243D01*
X285000Y501758D01*
X289924Y502243D01*
X294660Y503680D01*
X299023Y506012D01*
X302848Y509151D01*
X305988Y512976D01*
X308320Y517341D01*
X309757Y522076D01*
X310242Y527000D01*
X309757Y531924D01*
X308320Y536660D01*
X305988Y541023D01*
X302848Y544848D01*
X299023Y547988D01*
X294660Y550320D01*
X289924Y551757D01*
X285000Y552242D01*
D02*
G37*
G36*
X262402Y498394D02*
X259517Y498014D01*
X256829Y496901D01*
X254521Y495130D01*
X252750Y492822D01*
X251636Y490134D01*
X251256Y487249D01*
X251636Y484364D01*
X252750Y481676D01*
X254521Y479368D01*
X256829Y477597D01*
X259517Y476483D01*
X262402Y476104D01*
X265286Y476483D01*
X267974Y477597D01*
X270283Y479368D01*
X272054Y481676D01*
X273167Y484364D01*
X273547Y487249D01*
X273167Y490134D01*
X272054Y492822D01*
X270283Y495130D01*
X267974Y496901D01*
X265286Y498014D01*
X262402Y498394D01*
D02*
G37*
G36*
X302492Y575310D02*
X295240D01*
Y568058D01*
X295321Y568069D01*
X297763Y569080D01*
X299861Y570689D01*
X301470Y572787D01*
X302481Y575229D01*
X302492Y575310D01*
D02*
G37*
G36*
X262402Y423894D02*
X259517Y423515D01*
X256829Y422401D01*
X254521Y420630D01*
X252750Y418322D01*
X251636Y415634D01*
X251256Y412749D01*
X251636Y409864D01*
X252750Y407176D01*
X254521Y404868D01*
X256829Y403097D01*
X259517Y401983D01*
X262402Y401604D01*
X265286Y401983D01*
X267974Y403097D01*
X270283Y404868D01*
X272054Y407176D01*
X273167Y409864D01*
X273547Y412749D01*
X273167Y415634D01*
X272054Y418322D01*
X270283Y420630D01*
X267974Y422401D01*
X265286Y423515D01*
X262402Y423894D01*
D02*
G37*
G36*
X23510Y438460D02*
X15960D01*
Y433500D01*
X16157Y432509D01*
X16719Y431669D01*
X17559Y431107D01*
X18550Y430910D01*
X23510D01*
Y438460D01*
D02*
G37*
G36*
X295240Y587642D02*
Y580390D01*
X302492D01*
X302481Y580471D01*
X301470Y582913D01*
X299861Y585011D01*
X297763Y586620D01*
X295321Y587632D01*
X295240Y587642D01*
D02*
G37*
%LPD*%
G36*
X156750Y160749D02*
Y127500D01*
X73250D01*
Y160750D01*
X91750D01*
Y142000D01*
X105695D01*
X107224Y141367D01*
X109001Y141133D01*
X110779Y141367D01*
X112308Y142000D01*
X117692D01*
X119221Y141367D01*
X120999Y141133D01*
X122776Y141367D01*
X124305Y142000D01*
X138250D01*
Y159855D01*
X139148Y160753D01*
X156750Y160749D01*
D02*
G37*
D27*
X79003Y155003D02*
X86000D01*
X78999Y154999D02*
X79003Y155003D01*
X78999Y148002D02*
Y154999D01*
X86000Y148003D02*
Y155003D01*
X78999Y148002D02*
X85998D01*
X86000Y148003D01*
X144000Y155003D02*
X151001D01*
Y148002D02*
Y155003D01*
X143998Y148000D02*
X151000D01*
X143998D02*
Y155002D01*
X85998Y140000D02*
Y148002D01*
Y140000D02*
X143998D01*
Y148000D01*
X78999Y134000D02*
Y148002D01*
Y134000D02*
X151001D01*
Y148002D01*
D28*
X99000Y250000D02*
X102000Y253000D01*
X38250Y250000D02*
X99000D01*
X193500Y227000D02*
X221500Y255000D01*
X98600Y227000D02*
X193500D01*
X84600Y213000D02*
X98600Y227000D01*
X191500Y289000D02*
Y370000D01*
X155500Y253000D02*
X191500Y289000D01*
X102000Y253000D02*
X155500D01*
X102000Y247000D02*
Y253000D01*
X102000Y253000D02*
X102000Y253000D01*
X38250Y250000D02*
Y253000D01*
Y247000D02*
Y250000D01*
Y247000D02*
X46499D01*
X38250Y253000D02*
Y343250D01*
Y253000D02*
X38250Y253000D01*
X46499D01*
X191500Y494500D02*
Y522750D01*
X76500Y380750D02*
Y418000D01*
Y368500D02*
Y380750D01*
X76250Y380500D02*
X76500Y380750D01*
X66963Y380500D02*
X76250D01*
X39247Y418000D02*
X76500D01*
X76500Y418000D02*
Y494497D01*
X76500Y418000D02*
X76500Y418000D01*
X101750Y435659D02*
Y494750D01*
X101500Y435409D02*
X101750Y435659D01*
X21000Y558750D02*
X72000D01*
X102000Y253500D02*
X102000Y253500D01*
X46499Y253000D02*
X102000D01*
Y246500D02*
X102000Y246500D01*
X46499Y247000D02*
X102000D01*
X224000Y328000D02*
X256501Y295499D01*
Y136000D02*
Y295499D01*
X44750Y349750D02*
X71500D01*
X38250Y343250D02*
X44750Y349750D01*
X76500Y354750D02*
Y368500D01*
X76499Y368499D02*
X76500Y368500D01*
X71500Y349750D02*
X76500Y354750D01*
Y494497D02*
Y554250D01*
X72000Y558750D02*
X76500Y554250D01*
X18250Y561500D02*
X21000Y558750D01*
X18250Y561500D02*
Y567501D01*
X191500Y434500D02*
Y494500D01*
Y370000D02*
Y434500D01*
X182497Y370000D02*
X191500D01*
X190501Y433501D02*
X191500Y434500D01*
X174000Y433501D02*
X190501D01*
X191500Y522750D02*
X197500Y528750D01*
X219997D01*
X110750Y287000D02*
X116997D01*
X76249Y321501D02*
X110750Y287000D01*
X64498Y321501D02*
X76249D01*
X221500Y255000D02*
X230000D01*
X318000Y502000D02*
Y509000D01*
Y346000D02*
Y502000D01*
Y261250D02*
Y346000D01*
X311750Y255000D02*
X318000Y261250D01*
X304000Y255000D02*
X311750D01*
X252998Y337001D02*
Y341998D01*
X257000Y346000D01*
X207999Y406000D02*
X224000D01*
X207999Y398000D02*
X224000D01*
X224000Y398000D01*
Y406000D01*
X209997Y482000D02*
X218000D01*
X224000Y476000D01*
Y406000D02*
Y476000D01*
X256501Y128000D02*
Y136000D01*
X224000Y328000D02*
Y398000D01*
X257000Y346000D02*
X318000D01*
X230000Y255000D02*
X237000D01*
X297000D02*
X304000D01*
D29*
X73500Y333000D02*
X73501D01*
X106002Y331248D02*
X106500Y330750D01*
X73500Y331248D02*
X106002D01*
X95739Y363420D02*
X122830D01*
X84920Y374239D02*
X95739Y363420D01*
X122830D02*
X130000Y356250D01*
X97619Y367960D02*
X124711D01*
X89460Y376119D02*
X97619Y367960D01*
X124711D02*
X127670Y365000D01*
X99500Y372500D02*
X142250D01*
X94000Y378000D02*
X99500Y372500D01*
X254750Y543998D02*
Y634003D01*
X231000Y536250D02*
X247002D01*
X254750Y543998D01*
X248253Y640500D02*
X254750Y634003D01*
X244000Y558500D02*
X248003D01*
X234750Y549250D02*
X244000Y558500D01*
X176885Y549250D02*
X234750D01*
X242250Y546500D02*
X248003D01*
X240250Y544500D02*
X242250Y546500D01*
X182250Y544500D02*
X240250D01*
X212500Y587500D02*
Y605250D01*
X210290Y585290D02*
X212500Y587500D01*
X151650Y585290D02*
X210290D01*
X207960Y592960D02*
Y614710D01*
X204830Y589830D02*
X207960Y592960D01*
X149770Y589830D02*
X204830D01*
X207960Y614710D02*
X220000Y626750D01*
X212500Y605250D02*
X220000Y612750D01*
Y586164D02*
Y598500D01*
X214586Y580750D02*
X220000Y586164D01*
X153531Y580750D02*
X214586D01*
X228000Y524365D02*
Y533250D01*
X225385Y521750D02*
X228000Y524365D01*
X208000Y521750D02*
X225385D01*
X228000Y533250D02*
X231000Y536250D01*
X84920Y374239D02*
Y585580D01*
X80000Y590500D02*
X84920Y585580D01*
X89460Y376119D02*
Y606170D01*
X99540Y616250D01*
X94000Y378000D02*
Y604000D01*
X108500Y618500D01*
X135630Y575690D02*
X149770Y589830D01*
X135630Y472471D02*
Y575690D01*
X140170Y573810D02*
X151650Y585290D01*
X140170Y470590D02*
Y573810D01*
X144710Y571929D02*
X153531Y580750D01*
X144710Y468710D02*
Y571929D01*
X222503Y561000D02*
X248003Y586500D01*
X152250Y561000D02*
X222503D01*
X231003Y555500D02*
X248003Y572500D01*
X157250Y555500D02*
X231003D01*
X149250Y547500D02*
X157250Y555500D01*
X170500Y542865D02*
X176885Y549250D01*
X170500Y445000D02*
Y542865D01*
X178000Y540250D02*
X182250Y544500D01*
X163500Y450500D02*
Y547750D01*
X99540Y616250D02*
Y629000D01*
X22500Y590500D02*
X80000D01*
X200750Y514500D02*
X208000Y521750D01*
X200750Y391000D02*
Y514500D01*
Y391000D02*
X212750Y379000D01*
Y359250D02*
Y379000D01*
X208500Y355000D02*
X212750Y359250D01*
X168750Y342500D02*
Y359250D01*
X136000Y392000D02*
X168750Y359250D01*
X149250Y461000D02*
Y547500D01*
X183999Y630999D02*
X193500Y640500D01*
X220250D01*
X26000Y637000D02*
X30500Y632500D01*
X15000Y637000D02*
X26000D01*
X96040Y632500D02*
X99540Y629000D01*
X30500Y632500D02*
X96040D01*
X22500Y626500D02*
X30500Y618500D01*
X90500D01*
X183999Y614500D02*
Y630999D01*
X128920Y465761D02*
X135630Y472471D01*
X128920Y416921D02*
Y465761D01*
X111999Y400000D02*
X128920Y416921D01*
X133460Y463881D02*
X140170Y470590D01*
X133460Y413460D02*
Y463881D01*
X113000Y393000D02*
X133460Y413460D01*
X138000Y411580D02*
Y462000D01*
X144710Y468710D01*
X130000Y356250D02*
X151500D01*
X156250Y455500D02*
Y540250D01*
X161500Y436000D02*
X170500Y445000D01*
X156500Y443500D02*
X163500Y450500D01*
X146500Y458250D02*
X149250Y461000D01*
X151500Y450750D02*
X156250Y455500D01*
X73500Y332998D02*
X73501Y333000D01*
X102750Y400000D02*
X111999D01*
X109000Y393000D02*
X113000D01*
X116000Y385999D02*
Y389579D01*
X138000Y411580D01*
X127670Y365000D02*
X147000D01*
X129000Y392000D02*
X136000D01*
D32*
X262402Y487249D02*
D03*
Y412749D02*
D03*
X300452Y411749D02*
D03*
X300452Y488249D02*
D03*
D33*
X110000Y213000D02*
D03*
X84600D02*
D03*
X292700Y577850D02*
D03*
X267300D02*
D03*
X292700Y603250D02*
D03*
X267300D02*
D03*
X292700Y628650D02*
D03*
X51450Y441000D02*
D03*
X300700Y327400D02*
D03*
X275300Y302000D02*
D03*
X300700D02*
D03*
X275300Y276600D02*
D03*
X300700D02*
D03*
X140000Y212700D02*
D03*
D34*
X59200Y213000D02*
D03*
X26050Y441000D02*
D03*
D35*
X102500Y93000D02*
D03*
X127500D02*
D03*
D36*
X267300Y628650D02*
D03*
X275300Y327400D02*
D03*
X140000Y187300D02*
D03*
D37*
X285000Y527000D02*
D03*
X32000Y32000D02*
D03*
X293000D02*
D03*
D38*
X295000Y242499D02*
D03*
X280000Y152499D02*
D03*
X295000Y122499D02*
D03*
X280000Y92499D02*
D03*
X295000Y62499D02*
D03*
X250000Y392499D02*
D03*
X265000Y182499D02*
D03*
Y122499D02*
D03*
Y62499D02*
D03*
X220000Y212499D02*
D03*
X235000Y182499D02*
D03*
X220000Y152499D02*
D03*
Y92499D02*
D03*
Y32499D02*
D03*
X205000Y182499D02*
D03*
X190000Y152499D02*
D03*
Y92499D02*
D03*
Y32499D02*
D03*
X160000Y632499D02*
D03*
X175000Y422499D02*
D03*
X160000Y92499D02*
D03*
Y32499D02*
D03*
X130000Y632499D02*
D03*
X145000Y602499D02*
D03*
Y62499D02*
D03*
X130000Y32499D02*
D03*
X115000Y602499D02*
D03*
Y542499D02*
D03*
Y62499D02*
D03*
X100000Y32499D02*
D03*
X85000Y182499D02*
D03*
X70000Y92499D02*
D03*
X85000Y62499D02*
D03*
X70000Y32499D02*
D03*
X40000Y512499D02*
D03*
Y212499D02*
D03*
X55000Y182499D02*
D03*
X40000Y152499D02*
D03*
X55000Y122499D02*
D03*
X40000Y92499D02*
D03*
X55000Y62499D02*
D03*
X10000Y572499D02*
D03*
Y512499D02*
D03*
X25000Y422499D02*
D03*
Y302499D02*
D03*
X10000Y272499D02*
D03*
X25000Y242499D02*
D03*
X10000Y212499D02*
D03*
X25000Y182499D02*
D03*
X10000Y152499D02*
D03*
X25000Y122499D02*
D03*
X10000Y92499D02*
D03*
X25000Y62499D02*
D03*
X106500Y330750D02*
D03*
X188500Y533500D02*
D03*
X66963Y380500D02*
D03*
X129500Y380991D02*
D03*
X101750Y435659D02*
D03*
Y494750D02*
D03*
X157500Y571000D02*
D03*
X102000Y253000D02*
D03*
Y247000D02*
D03*
X76500Y494497D02*
D03*
X191500Y494500D02*
D03*
X220011Y514525D02*
D03*
X203498Y364999D02*
D03*
X18250Y567501D02*
D03*
X219997Y528750D02*
D03*
X208999Y497500D02*
D03*
X168750Y342500D02*
D03*
X208500Y355000D02*
D03*
X64498Y321501D02*
D03*
X116997Y287000D02*
D03*
X182497Y370000D02*
D03*
X174000Y433501D02*
D03*
X39247Y418000D02*
D03*
X46499Y247000D02*
D03*
Y253000D02*
D03*
X310250Y200000D02*
D03*
X159750D02*
D03*
X167750Y571000D02*
D03*
X152250Y561000D02*
D03*
X163500Y547750D02*
D03*
X86000Y155003D02*
D03*
X15000Y637000D02*
D03*
X178000Y571000D02*
D03*
X248000Y38000D02*
D03*
X234000D02*
D03*
X308999Y641002D02*
D03*
X108500Y618500D02*
D03*
X90500D02*
D03*
X116000Y385999D02*
D03*
X109000Y393000D02*
D03*
X102750Y400000D02*
D03*
X220000Y598500D02*
D03*
Y612750D02*
D03*
Y626750D02*
D03*
X39250Y393000D02*
D03*
X173999Y600500D02*
D03*
Y635500D02*
D03*
X183999Y614500D02*
D03*
X220250Y640500D02*
D03*
X209997Y417000D02*
D03*
X13999Y334502D02*
D03*
X13999Y347998D02*
D03*
X39250Y405500D02*
D03*
X111500Y408750D02*
D03*
X116500Y356250D02*
D03*
X147000Y365000D02*
D03*
X142250Y372500D02*
D03*
X155250Y385000D02*
D03*
X151500Y356250D02*
D03*
X22500Y590500D02*
D03*
Y626500D02*
D03*
X248003Y546500D02*
D03*
X178000Y540250D02*
D03*
X248003Y586500D02*
D03*
X156250Y540250D02*
D03*
X248003Y572500D02*
D03*
Y558500D02*
D03*
X146500Y458250D02*
D03*
X151500Y450750D02*
D03*
X156500Y443500D02*
D03*
X161500Y436000D02*
D03*
X248253Y640500D02*
D03*
X91500Y282999D02*
D03*
X101500D02*
D03*
X114000Y299000D02*
D03*
X57500Y299000D02*
D03*
X73500Y331248D02*
D03*
X101500Y385000D02*
D03*
X183000Y503999D02*
D03*
X53999Y544500D02*
D03*
X29000Y522499D02*
D03*
X19000D02*
D03*
X44000Y536999D02*
D03*
X43502Y569498D02*
D03*
X272499Y388500D02*
D03*
X251749Y358500D02*
D03*
Y368500D02*
D03*
X210000Y469000D02*
D03*
X238998Y337001D02*
D03*
X129000Y392000D02*
D03*
X318000Y502000D02*
D03*
Y509000D02*
D03*
X252998Y337001D02*
D03*
X137998Y294001D02*
D03*
X209997Y482000D02*
D03*
X207999Y406000D02*
D03*
Y398000D02*
D03*
X213499Y126000D02*
D03*
Y138000D02*
D03*
X256501Y136000D02*
D03*
Y128000D02*
D03*
X225000Y47000D02*
D03*
X227000Y113000D02*
D03*
X197000Y113000D02*
D03*
X210501Y132000D02*
D03*
X88001Y269000D02*
D03*
X90999Y275000D02*
D03*
Y263000D02*
D03*
X102000Y155003D02*
D03*
X109001Y148002D02*
D03*
X120999D02*
D03*
X128000Y155003D02*
D03*
X151001Y148002D02*
D03*
X144000Y155003D02*
D03*
X78999Y148002D02*
D03*
X66000Y126997D02*
D03*
X230000Y255000D02*
D03*
X237000D02*
D03*
X297000D02*
D03*
X304000D02*
D03*
M02*
